<svg width="16" height="16" viewBox="0 0 16 16" fill="none" xmlns="http://www.w3.org/2000/svg">
<g clip-path="url(#clip0)">
<path fill-rule="evenodd" clip-rule="evenodd" d="M3.62014 12.6687C6.43713 10.4674 5.31997 5.04209 8.5147 5.12708C9.57332 5.15447 10.0606 5.55865 10.0606 5.55865C10.3947 5.55447 10.7278 5.59674 11.0503 5.68425C11.5092 5.82307 11.5791 6.06199 11.5791 6.06199C11.5791 6.06199 10.3788 6.35285 10.19 6.58988C10.0011 6.82691 9.81224 6.9799 9.68853 7.69005C9.44677 9.05841 10.902 11.1841 11.4016 12.4269C11.4441 12.5327 11.4837 12.6375 11.5206 12.7423H12.9286V4.71535H13.8824L7.99908 0.235352L2.11768 4.70968H2.98742V12.7414H3.55403C3.57437 12.7156 3.59646 12.6913 3.62014 12.6687V12.6687Z" fill="#FECE47"/>
<path fill-rule="evenodd" clip-rule="evenodd" d="M10.3685 6.64648C9.46474 7.71454 9.8727 9.87899 11.2071 9.89316C12.0202 9.9026 12.2043 8.51441 11.53 8.04601C10.9549 7.64655 10.2637 7.64088 10.3685 6.64648Z" fill="#A63D40"/>
<path fill-rule="evenodd" clip-rule="evenodd" d="M9.07835 6.43586C9.15281 6.43474 9.22528 6.41164 9.28665 6.36946C9.34802 6.32728 9.39555 6.2679 9.42327 6.19879C9.451 6.12967 9.45767 6.05391 9.44246 5.98101C9.42726 5.90811 9.39084 5.84134 9.33779 5.78908C9.28475 5.73681 9.21744 5.7014 9.14432 5.68727C9.07121 5.67315 8.99555 5.68096 8.92685 5.70971C8.85816 5.73846 8.7995 5.78687 8.75823 5.84886C8.71697 5.91085 8.69495 5.98365 8.69495 6.05812C8.69619 6.15889 8.73716 6.25511 8.80896 6.32584C8.88075 6.39658 8.97757 6.43611 9.07835 6.43586V6.43586Z" fill="#A63D40"/>
<path fill-rule="evenodd" clip-rule="evenodd" d="M9.18221 6.18478C9.21056 6.1846 9.23821 6.17602 9.2617 6.16013C9.28518 6.14425 9.30343 6.12177 9.31415 6.09552C9.32487 6.06928 9.32758 6.04045 9.32193 6.01267C9.31629 5.98488 9.30254 5.95939 9.28243 5.93941C9.26232 5.91943 9.23674 5.90586 9.20892 5.9004C9.1811 5.89493 9.15229 5.89783 9.12612 5.90872C9.09994 5.91961 9.07758 5.93801 9.06185 5.96159C9.04612 5.98518 9.03772 6.01289 9.03772 6.04124C9.03797 6.0794 9.0533 6.11591 9.08037 6.1428C9.10744 6.16969 9.14405 6.18478 9.18221 6.18478V6.18478Z" fill="white"/>
<path fill-rule="evenodd" clip-rule="evenodd" d="M10.1551 5.41118C10.1834 5.31674 11.2279 4.85401 11.2005 4.29685C11.1731 3.73968 10.5177 3.61408 10.5177 3.61408C10.5177 3.61408 11.0333 2.88976 10.1693 2.65273C9.30518 2.4157 8.42788 3.27978 8.42788 3.27978C8.42788 3.27978 7.71773 2.91715 7.34188 3.50265C6.96603 4.08814 6.70728 5.58494 6.70728 5.58494C7.74795 4.61509 8.99827 4.80018 10.1551 5.41118Z" fill="#A63D40"/>
</g>
<defs>
<clipPath id="clip0">
<path d="M0 0H16V16H0V0Z" fill="white"/>
</clipPath>
</defs>
</svg>
