<svg width="28" height="28" viewBox="0 0 28 28" fill="none" xmlns="http://www.w3.org/2000/svg">
<g filter="url(#filter0_d)">
<circle cx="14" cy="11" r="10" fill="#2E86AB"/>
</g>
<path d="M13.6354 6.43417C13.6354 6.43417 14.087 5.75611 11.7939 7.08601C10.9727 7.56229 10.3111 8.2714 9.89291 9.12367C9.47469 9.97593 9.31859 10.9331 9.44434 11.8741C9.5701 12.815 9.97207 13.6976 10.5994 14.4101C11.2268 15.1227 12.0513 15.6332 12.9688 15.8771C13.8863 16.121 14.8555 16.0874 15.7538 15.7805C16.6522 15.4735 17.4394 14.9071 18.0159 14.1528C18.5923 13.3985 18.9321 12.4902 18.9924 11.5428C19.0526 10.5953 18.8305 9.65132 18.3543 8.83009" stroke="#F1F1F1" stroke-miterlimit="10" stroke-linecap="round"/>
<path d="M10.5898 5.00977L13.87 5.88181L12.998 9.16198" stroke="#F1F1F1" stroke-linecap="round" stroke-linejoin="round"/>
<defs>
<filter id="filter0_d" x="0" y="0" width="28" height="28" filterUnits="userSpaceOnUse" color-interpolation-filters="sRGB">
<feFlood flood-opacity="0" result="BackgroundImageFix"/>
<feColorMatrix in="SourceAlpha" type="matrix" values="0 0 0 0 0 0 0 0 0 0 0 0 0 0 0 0 0 0 127 0"/>
<feOffset dy="3"/>
<feGaussianBlur stdDeviation="2"/>
<feColorMatrix type="matrix" values="0 0 0 0 0 0 0 0 0 0 0 0 0 0 0 0 0 0 0.1 0"/>
<feBlend mode="normal" in2="BackgroundImageFix" result="effect1_dropShadow"/>
<feBlend mode="normal" in="SourceGraphic" in2="effect1_dropShadow" result="shape"/>
</filter>
</defs>
</svg>
