<svg width="20" height="24" viewBox="0 0 10 12" fill="none" xmlns="http://www.w3.org/2000/svg">
<path d="M8.94053 1.55411L8.57418 1.40404L8.77965 0.9833C8.83435 0.871293 8.82759 0.741327 8.76156 0.63561C8.69556 0.529893 8.58173 0.466797 8.4571 0.466797H8.31479L8.18953 0.204349C8.13117 0.0820395 8.01072 0.00378221 7.87525 0.000116615C7.74023 -0.0032887 7.61534 0.0680929 7.55042 0.187084L7.44377 0.382619L7.14228 0.204176C7.03157 0.13865 6.89343 0.137522 6.78164 0.201247C6.66989 0.264972 6.60046 0.384441 6.60046 0.513084V0.656693C6.48605 0.678014 6.38782 0.753907 6.33899 0.863506C6.27952 0.997051 6.30631 1.1517 6.40725 1.25746L6.72633 1.5917C6.72358 1.60086 6.72078 1.60999 6.71828 1.61927L6.51242 2.38388C6.38003 2.87564 6.10934 3.31501 5.72959 3.65446C5.64029 3.7343 5.63262 3.87142 5.71246 3.96072C5.7923 4.05004 5.92938 4.05772 6.01872 3.97788C6.46139 3.58214 6.77696 3.06996 6.9313 2.49665L7.13716 1.73206C7.20013 1.49818 7.41325 1.33483 7.65546 1.33483C7.84048 1.33483 8.01565 1.43272 8.11262 1.59031L8.13418 1.62534C8.10724 1.66148 8.0913 1.70627 8.0913 1.75481V2.00088C8.0913 2.12072 7.9938 2.21824 7.87395 2.21824C7.8023 2.21824 7.73528 2.25361 7.69487 2.31274C7.65446 2.37187 7.64583 2.44715 7.67184 2.51389L7.79591 2.83215C8.14559 3.72912 8.32288 4.67204 8.32288 5.63475C8.32288 6.41678 7.89726 7.13682 7.2121 7.51388C7.16724 7.53856 7.13256 7.5783 7.11419 7.6261L7.0565 7.77624C6.76368 8.53827 6.01846 9.05026 5.20211 9.05026H4.51626C4.51196 9.05011 4.50769 9.04985 4.50337 9.04994C3.82259 9.04321 3.27076 8.48756 3.27076 7.80522C3.27076 7.68542 3.17363 7.58832 3.05386 7.58832H2.40251C1.95543 7.58832 1.59169 7.22458 1.59169 6.77751C1.59169 6.65771 1.49457 6.56061 1.37479 6.56061C0.855885 6.56061 0.433712 6.13846 0.433712 5.61952V5.21405H1.7922C2.67606 5.21405 3.5509 5.07712 4.39247 4.80704C4.50654 4.77043 4.56931 4.64831 4.53272 4.53425C4.49613 4.4202 4.37404 4.35739 4.25992 4.394C3.46128 4.65031 2.63101 4.78025 1.79222 4.78025H0.216899C0.0971275 4.78025 0 4.87736 0 4.99715V5.61957C0 6.30961 0.510971 6.88255 1.17442 6.97987C1.27133 7.57029 1.78517 8.02216 2.40259 8.02216H2.85099C2.95072 8.79163 3.57352 9.39921 4.34992 9.4758L4.67516 10.4451C4.45867 10.4768 4.2917 10.6632 4.2917 10.8884C4.2917 11.0082 4.38883 11.1053 4.5086 11.1053C4.62837 11.1053 4.7255 11.0082 4.7255 10.8884C4.7255 10.8802 4.73211 10.8736 4.74025 10.8736H4.97331C4.97385 10.8736 4.97437 10.8737 4.97491 10.8737C4.97543 10.8737 4.97597 10.8736 4.9765 10.8736H5.19743C5.20556 10.8736 5.2122 10.8802 5.2122 10.8884C5.2122 11.0082 5.30933 11.1053 5.4291 11.1053C5.54887 11.1053 5.646 11.0082 5.646 10.8884C5.646 10.8834 5.64541 10.8786 5.64526 10.8736H5.71395C5.7145 10.8736 5.71502 10.8737 5.71556 10.8737C5.71608 10.8737 5.71662 10.8736 5.71714 10.8736H5.9381C5.94623 10.8736 5.95285 10.8802 5.95285 10.8884C5.95285 11.0082 6.04997 11.1053 6.16974 11.1053C6.28952 11.1053 6.38664 11.0082 6.38664 10.8884C6.38664 10.641 6.18543 10.4398 5.9381 10.4398H5.87155L5.54278 9.45994C5.91114 9.40795 6.26219 9.27202 6.57277 9.05868C6.97789 8.78033 7.28522 8.39072 7.46153 7.93191L7.49149 7.85393C8.27404 7.39092 8.75677 6.54803 8.75677 5.63479C8.75677 4.61797 8.5695 3.62203 8.20018 2.67464L8.16466 2.58352C8.37821 2.47657 8.52516 2.25557 8.52516 2.0009V1.97173H8.8583C8.96193 1.97173 9.0511 1.89842 9.07112 1.79674C9.09114 1.69503 9.03642 1.59339 8.94053 1.55411ZM5.312 10.4398C5.29549 10.4398 5.27946 10.4418 5.26402 10.4453C5.24224 10.442 5.22009 10.4398 5.19741 10.4398H5.13093L4.81026 9.48408H5.09334L5.414 10.4398H5.312ZM7.65551 0.90103C7.38399 0.90103 7.13274 1.01464 6.95379 1.2017L6.81511 1.05644C6.85552 1.03932 6.89282 1.01466 6.92536 0.983083C6.99557 0.91489 7.03426 0.823423 7.03426 0.725537V0.644329L7.28953 0.7954C7.37286 0.844723 7.47422 0.858257 7.5676 0.832576C7.66097 0.806874 7.74112 0.743387 7.78751 0.658363L7.86115 0.523365L7.94366 0.696255C8.00291 0.820365 8.1301 0.900574 8.26764 0.900574H8.33733L8.24064 1.09856C8.07399 0.972975 7.86844 0.90103 7.65551 0.90103Z" fill="#666666"/>
<path d="M2.56188 5.82084C2.49143 5.82084 2.42538 5.85505 2.38474 5.91257C2.34409 5.97009 2.3339 6.04377 2.35743 6.11016C2.59958 6.79359 3.23349 7.2616 3.95212 7.29732C4.04747 7.66267 4.38028 7.93306 4.77508 7.93306C5.4122 7.93306 5.98934 7.55608 6.24541 6.97269L6.25127 6.95941C6.34111 6.7547 6.38666 6.53757 6.38666 6.31405V5.27256C6.38666 5.19827 6.34866 5.12917 6.28591 5.08939C6.2232 5.04963 6.14447 5.04469 6.07727 5.07635C5.04401 5.56338 3.8941 5.82082 2.75179 5.82082H2.56188V5.82084ZM5.95286 5.60674V6.31407C5.95286 6.4772 5.91961 6.63569 5.85404 6.78509L5.84821 6.79837C5.6613 7.22416 5.24006 7.49928 4.77505 7.49928C4.54531 7.49928 4.35843 7.31237 4.35843 7.08266C4.35843 6.96286 4.26131 6.86576 4.14153 6.86576H4.04065C3.57831 6.86576 3.15477 6.62886 2.90885 6.2531C3.94997 6.2328 4.99265 6.01106 5.95286 5.60674Z" fill="#666666"/>
<path d="M6.79389 6.75416C6.68893 6.81192 6.65067 6.94382 6.70845 7.04878C6.74795 7.12057 6.82213 7.16115 6.89867 7.16115C6.93403 7.16115 6.96988 7.1525 7.00307 7.13424C7.54772 6.8345 7.8873 6.2621 7.88919 5.64042C7.88955 5.52063 7.79275 5.42322 7.67296 5.42285C7.55405 5.42266 7.45573 5.51929 7.45539 5.63908C7.45393 6.10316 7.20046 6.53043 6.79389 6.75416Z" fill="#666666"/>
<path d="M7.5948 4.55616C7.47583 4.56998 7.39054 4.67762 7.40436 4.79661C7.40445 4.79722 7.40473 4.79963 7.40482 4.80024L7.40538 4.80496C7.41878 4.91498 7.51233 4.99566 7.62041 4.99566C7.62915 4.99566 7.63803 4.99514 7.64692 4.99406C7.76582 4.97957 7.8505 4.87142 7.83601 4.75252L7.83536 4.74727L7.8353 4.74662C7.82144 4.62761 7.71383 4.54232 7.5948 4.55616Z" fill="#666666"/>
<path d="M5.1395 4.50335C5.19655 4.50335 5.25251 4.48014 5.29283 4.4398C5.33317 4.39924 5.3564 4.3435 5.3564 4.28624C5.3564 4.22919 5.33319 4.17345 5.29283 4.13289C5.25251 4.09254 5.19655 4.06934 5.1395 4.06934C5.08246 4.06934 5.0265 4.09254 4.98616 4.13289C4.94582 4.17345 4.92261 4.22919 4.92261 4.28624C4.92261 4.3435 4.94579 4.39924 4.98616 4.4398C5.0265 4.48016 5.08246 4.50335 5.1395 4.50335Z" fill="#666666"/>
</svg>
