<svg width="216" height="60" viewBox="0 0 216 60" fill="none" xmlns="http://www.w3.org/2000/svg">
<path d="M49.7333 12.32C48.9333 12.32 48.192 12.176 47.5093 11.888C46.8373 11.5893 46.2506 11.1733 45.7493 10.64C45.2586 10.1067 44.8746 9.48267 44.5973 8.768C44.32 8.04267 44.1813 7.25333 44.1813 6.4C44.1813 5.71733 44.272 5.072 44.4533 4.464C44.6346 3.84533 44.8906 3.28533 45.2213 2.784C45.5626 2.272 45.9626 1.83467 46.4213 1.472C46.88 1.09867 47.3866 0.816 47.9413 0.624C48.5066 0.421333 49.104 0.32 49.7333 0.32C50.4693 0.32 51.152 0.453333 51.7813 0.719999C52.4213 0.975999 52.9706 1.344 53.4293 1.824C53.8986 2.29333 54.2506 2.85333 54.4853 3.504L52.6133 4.032C52.336 3.424 51.9413 2.95467 51.4293 2.624C50.928 2.28267 50.3573 2.112 49.7173 2.112C49.216 2.112 48.752 2.21867 48.3253 2.432C47.8986 2.64533 47.5253 2.944 47.2053 3.328C46.8853 3.712 46.6346 4.16533 46.4533 4.688C46.2826 5.21067 46.1973 5.776 46.1973 6.384C46.1973 6.992 46.2826 7.552 46.4533 8.064C46.6346 8.56533 46.88 9.00267 47.1893 9.376C47.5093 9.73867 47.8826 10.0213 48.3093 10.224C48.7466 10.4267 49.2266 10.528 49.7493 10.528C50.4106 10.528 50.992 10.3627 51.4933 10.032C52.0053 9.70133 52.416 9.22667 52.7253 8.608L54.5973 9.136C54.352 9.78667 53.9946 10.352 53.5253 10.832C53.056 11.312 52.496 11.68 51.8453 11.936C51.1946 12.192 50.4906 12.32 49.7333 12.32ZM60.0597 12.24C59.4517 12.24 58.8864 12.1333 58.3637 11.92C57.8517 11.696 57.4037 11.3867 57.0197 10.992C56.6357 10.5867 56.337 10.1173 56.1237 9.584C55.9104 9.04 55.8037 8.448 55.8037 7.808C55.8037 7.17867 55.9104 6.59733 56.1237 6.064C56.337 5.52 56.6357 5.05067 57.0197 4.656C57.4144 4.25067 57.873 3.94133 58.3957 3.728C58.929 3.504 59.505 3.392 60.1237 3.392C60.7317 3.392 61.2917 3.504 61.8037 3.728C62.3264 3.94133 62.7797 4.25067 63.1637 4.656C63.5477 5.05067 63.8464 5.51467 64.0597 6.048C64.273 6.58133 64.3797 7.168 64.3797 7.808C64.3797 8.448 64.273 9.04 64.0597 9.584C63.8464 10.1173 63.5424 10.5867 63.1477 10.992C62.7637 11.3867 62.305 11.696 61.7717 11.92C61.249 12.1333 60.6784 12.24 60.0597 12.24ZM60.0917 10.576C60.5504 10.576 60.961 10.4587 61.3237 10.224C61.6864 9.97867 61.969 9.648 62.1717 9.232C62.385 8.816 62.4917 8.34133 62.4917 7.808C62.4917 7.27467 62.385 6.80533 62.1717 6.4C61.969 5.984 61.6864 5.65867 61.3237 5.424C60.961 5.17867 60.5504 5.056 60.0917 5.056C59.633 5.056 59.2224 5.17867 58.8597 5.424C58.497 5.65867 58.209 5.984 57.9957 6.4C57.793 6.80533 57.6917 7.27467 57.6917 7.808C57.6917 8.34133 57.793 8.816 57.9957 9.232C58.209 9.648 58.497 9.97867 58.8597 10.224C59.2224 10.4587 59.633 10.576 60.0917 10.576ZM65.9998 12V3.632H67.6798L67.7438 4.784C67.9891 4.35733 68.3305 4.02133 68.7678 3.776C69.2158 3.52 69.7278 3.392 70.3038 3.392C70.9331 3.392 71.4771 3.54133 71.9358 3.84C72.4051 4.13867 72.7678 4.56 73.0238 5.104C73.2798 5.648 73.4078 6.288 73.4078 7.024V12H71.5678V7.232C71.5678 6.54933 71.4131 6.016 71.1038 5.632C70.8051 5.248 70.3838 5.056 69.8398 5.056C69.4558 5.056 69.1091 5.14667 68.7998 5.328C68.5011 5.50933 68.2665 5.75467 68.0958 6.064C67.9251 6.37333 67.8398 6.73067 67.8398 7.136V12H65.9998ZM78.8784 11.84C78.3344 11.84 77.8278 11.7333 77.3584 11.52C76.8891 11.3067 76.4784 11.0133 76.1264 10.64C75.7744 10.256 75.5024 9.81333 75.3104 9.312C75.1184 8.8 75.0224 8.24533 75.0224 7.648C75.0224 7.05067 75.1184 6.496 75.3104 5.984C75.5131 5.46133 75.7958 5.008 76.1584 4.624C76.5211 4.24 76.9424 3.94133 77.4224 3.728C77.9024 3.504 78.4198 3.392 78.9744 3.392C79.5504 3.392 80.0731 3.52 80.5424 3.776C81.0224 4.02133 81.4064 4.368 81.6944 4.816L81.7584 3.632H83.4384V11.12C83.4384 11.76 83.3371 12.3413 83.1344 12.864C82.9318 13.3973 82.6438 13.8507 82.2704 14.224C81.8971 14.608 81.4491 14.9013 80.9264 15.104C80.4144 15.3067 79.8384 15.408 79.1984 15.408C78.3451 15.408 77.5984 15.216 76.9584 14.832C76.3184 14.448 75.8171 13.9147 75.4544 13.232L77.1984 12.624C77.4331 13.008 77.7264 13.296 78.0784 13.488C78.4304 13.6907 78.8251 13.792 79.2624 13.792C79.7318 13.792 80.1424 13.6853 80.4944 13.472C80.8464 13.2693 81.1184 12.976 81.3104 12.592C81.5024 12.2187 81.5984 11.776 81.5984 11.264V10.464C81.2998 10.8907 80.9158 11.2267 80.4464 11.472C79.9771 11.7173 79.4544 11.84 78.8784 11.84ZM79.2624 10.176C79.7104 10.176 80.1104 10.064 80.4624 9.84C80.8251 9.616 81.1078 9.312 81.3104 8.928C81.5238 8.544 81.6304 8.10667 81.6304 7.616C81.6304 7.12533 81.5238 6.688 81.3104 6.304C81.1078 5.92 80.8251 5.616 80.4624 5.392C80.1104 5.168 79.7104 5.056 79.2624 5.056C78.8144 5.056 78.4144 5.168 78.0624 5.392C77.7104 5.616 77.4278 5.92 77.2144 6.304C77.0118 6.688 76.9104 7.12533 76.9104 7.616C76.9104 8.10667 77.0118 8.544 77.2144 8.928C77.4278 9.312 77.7104 9.616 78.0624 9.84C78.4144 10.064 78.8144 10.176 79.2624 10.176ZM85.4217 12V3.632H87.1017L87.1817 5.008C87.395 4.53867 87.6884 4.176 88.0617 3.92C88.4457 3.65333 88.8937 3.52 89.4057 3.52C89.5657 3.52 89.7204 3.53067 89.8697 3.552C90.019 3.57333 90.1524 3.61067 90.2697 3.664L90.0617 5.456C89.9444 5.41333 89.8217 5.38667 89.6937 5.376C89.5657 5.35467 89.4377 5.344 89.3097 5.344C88.6697 5.344 88.1684 5.55733 87.8057 5.984C87.443 6.41067 87.2617 7.00267 87.2617 7.76V12H85.4217ZM93.9817 12.24C93.555 12.24 93.1604 12.176 92.7977 12.048C92.4457 11.92 92.1364 11.7387 91.8697 11.504C91.603 11.2693 91.395 10.992 91.2457 10.672C91.0964 10.352 91.0217 10 91.0217 9.616C91.0217 9.08267 91.1604 8.61867 91.4377 8.224C91.7257 7.81867 92.1257 7.504 92.6377 7.28C93.1497 7.056 93.747 6.944 94.4297 6.944C94.803 6.944 95.1604 6.98133 95.5017 7.056C95.843 7.12 96.1684 7.216 96.4777 7.344V6.816C96.4777 6.44267 96.4084 6.11733 96.2697 5.84C96.131 5.552 95.9337 5.328 95.6777 5.168C95.4217 5.008 95.1124 4.928 94.7497 4.928C94.3657 4.928 94.019 5.02933 93.7097 5.232C93.4004 5.43467 93.171 5.71733 93.0217 6.08L91.3257 5.696C91.4537 5.22667 91.683 4.82133 92.0137 4.48C92.355 4.13867 92.7604 3.872 93.2297 3.68C93.7097 3.488 94.227 3.392 94.7817 3.392C95.3044 3.392 95.779 3.47733 96.2057 3.648C96.643 3.81867 97.0164 4.05867 97.3257 4.368C97.635 4.67733 97.875 5.04533 98.0457 5.472C98.2164 5.89867 98.3017 6.37333 98.3017 6.896V12H96.6217L96.5577 10.896C96.3337 11.3013 95.9977 11.6267 95.5497 11.872C95.1017 12.1173 94.579 12.24 93.9817 12.24ZM92.8777 9.536C92.8777 9.77067 92.9417 9.984 93.0697 10.176C93.1977 10.3573 93.3737 10.5013 93.5977 10.608C93.8324 10.7147 94.1044 10.768 94.4137 10.768C94.8084 10.768 95.1604 10.6827 95.4697 10.512C95.779 10.3413 96.0244 10.112 96.2057 9.824C96.387 9.52533 96.4777 9.18933 96.4777 8.816V8.624C96.2004 8.50667 95.9124 8.416 95.6137 8.352C95.3257 8.27733 95.027 8.24 94.7177 8.24C94.163 8.24 93.715 8.35733 93.3737 8.592C93.043 8.82667 92.8777 9.14133 92.8777 9.536ZM103.471 12.24C102.629 12.24 101.967 12 101.487 11.52C101.007 11.0293 100.767 10.3307 100.767 9.424V5.12H99.2954V3.632H100.767V0.799999H102.607V3.632H105.039V5.12H102.607V9.232C102.607 9.68 102.698 10.0267 102.879 10.272C103.071 10.5067 103.349 10.624 103.711 10.624C103.903 10.624 104.111 10.5973 104.335 10.544C104.559 10.48 104.767 10.3947 104.959 10.288L105.375 11.68C105.13 11.8507 104.842 11.984 104.511 12.08C104.191 12.1867 103.845 12.24 103.471 12.24ZM110.508 12.24C109.761 12.24 109.111 12.08 108.556 11.76C108.012 11.44 107.585 10.9867 107.276 10.4C106.977 9.80267 106.828 9.104 106.828 8.304V3.632H108.668V8.336C108.668 9.02933 108.833 9.57867 109.164 9.984C109.495 10.3787 109.948 10.576 110.524 10.576C111.1 10.576 111.553 10.3787 111.884 9.984C112.215 9.57867 112.38 9.02933 112.38 8.336V3.632H114.22V8.304C114.22 9.09333 114.065 9.78667 113.756 10.384C113.457 10.9707 113.031 11.4293 112.476 11.76C111.921 12.08 111.265 12.24 110.508 12.24ZM116.203 12V0.0959997H118.043V12H116.203ZM122.591 12.24C122.164 12.24 121.77 12.176 121.407 12.048C121.055 11.92 120.746 11.7387 120.479 11.504C120.212 11.2693 120.004 10.992 119.855 10.672C119.706 10.352 119.631 10 119.631 9.616C119.631 9.08267 119.77 8.61867 120.047 8.224C120.335 7.81867 120.735 7.504 121.247 7.28C121.759 7.056 122.356 6.944 123.039 6.944C123.412 6.944 123.77 6.98133 124.111 7.056C124.452 7.12 124.778 7.216 125.087 7.344V6.816C125.087 6.44267 125.018 6.11733 124.879 5.84C124.74 5.552 124.543 5.328 124.287 5.168C124.031 5.008 123.722 4.928 123.359 4.928C122.975 4.928 122.628 5.02933 122.319 5.232C122.01 5.43467 121.78 5.71733 121.631 6.08L119.935 5.696C120.063 5.22667 120.292 4.82133 120.623 4.48C120.964 4.13867 121.37 3.872 121.839 3.68C122.319 3.488 122.836 3.392 123.391 3.392C123.914 3.392 124.388 3.47733 124.815 3.648C125.252 3.81867 125.626 4.05867 125.935 4.368C126.244 4.67733 126.484 5.04533 126.655 5.472C126.826 5.89867 126.911 6.37333 126.911 6.896V12H125.231L125.167 10.896C124.943 11.3013 124.607 11.6267 124.159 11.872C123.711 12.1173 123.188 12.24 122.591 12.24ZM121.487 9.536C121.487 9.77067 121.551 9.984 121.679 10.176C121.807 10.3573 121.983 10.5013 122.207 10.608C122.442 10.7147 122.714 10.768 123.023 10.768C123.418 10.768 123.77 10.6827 124.079 10.512C124.388 10.3413 124.634 10.112 124.815 9.824C124.996 9.52533 125.087 9.18933 125.087 8.816V8.624C124.81 8.50667 124.522 8.416 124.223 8.352C123.935 8.27733 123.636 8.24 123.327 8.24C122.772 8.24 122.324 8.35733 121.983 8.592C121.652 8.82667 121.487 9.14133 121.487 9.536ZM132.081 12.24C131.238 12.24 130.577 12 130.097 11.52C129.617 11.0293 129.377 10.3307 129.377 9.424V5.12H127.905V3.632H129.377V0.799999H131.217V3.632H133.649V5.12H131.217V9.232C131.217 9.68 131.307 10.0267 131.489 10.272C131.681 10.5067 131.958 10.624 132.321 10.624C132.513 10.624 132.721 10.5973 132.945 10.544C133.169 10.48 133.377 10.3947 133.569 10.288L133.985 11.68C133.739 11.8507 133.451 11.984 133.121 12.08C132.801 12.1867 132.454 12.24 132.081 12.24ZM137.469 1.296C137.469 1.49867 137.416 1.68533 137.309 1.856C137.213 2.02667 137.08 2.16533 136.909 2.272C136.739 2.368 136.552 2.416 136.349 2.416C136.147 2.416 135.96 2.368 135.789 2.272C135.619 2.16533 135.48 2.02667 135.373 1.856C135.277 1.68533 135.229 1.49867 135.229 1.296C135.229 1.09333 135.277 0.906666 135.373 0.735999C135.48 0.565333 135.619 0.432 135.789 0.335999C135.96 0.229333 136.147 0.176 136.349 0.176C136.552 0.176 136.739 0.229333 136.909 0.335999C137.08 0.432 137.213 0.565333 137.309 0.735999C137.416 0.906666 137.469 1.09333 137.469 1.296ZM135.437 12V3.632H137.277V12H135.437ZM143.153 12.24C142.545 12.24 141.98 12.1333 141.457 11.92C140.945 11.696 140.497 11.3867 140.113 10.992C139.729 10.5867 139.431 10.1173 139.217 9.584C139.004 9.04 138.897 8.448 138.897 7.808C138.897 7.17867 139.004 6.59733 139.217 6.064C139.431 5.52 139.729 5.05067 140.113 4.656C140.508 4.25067 140.967 3.94133 141.489 3.728C142.023 3.504 142.599 3.392 143.217 3.392C143.825 3.392 144.385 3.504 144.897 3.728C145.42 3.94133 145.873 4.25067 146.257 4.656C146.641 5.05067 146.94 5.51467 147.153 6.048C147.367 6.58133 147.473 7.168 147.473 7.808C147.473 8.448 147.367 9.04 147.153 9.584C146.94 10.1173 146.636 10.5867 146.241 10.992C145.857 11.3867 145.399 11.696 144.865 11.92C144.343 12.1333 143.772 12.24 143.153 12.24ZM143.185 10.576C143.644 10.576 144.055 10.4587 144.417 10.224C144.78 9.97867 145.063 9.648 145.265 9.232C145.479 8.816 145.585 8.34133 145.585 7.808C145.585 7.27467 145.479 6.80533 145.265 6.4C145.063 5.984 144.78 5.65867 144.417 5.424C144.055 5.17867 143.644 5.056 143.185 5.056C142.727 5.056 142.316 5.17867 141.953 5.424C141.591 5.65867 141.303 5.984 141.089 6.4C140.887 6.80533 140.785 7.27467 140.785 7.808C140.785 8.34133 140.887 8.816 141.089 9.232C141.303 9.648 141.591 9.97867 141.953 10.224C142.316 10.4587 142.727 10.576 143.185 10.576ZM149.094 12V3.632H150.774L150.838 4.784C151.083 4.35733 151.424 4.02133 151.862 3.776C152.31 3.52 152.822 3.392 153.398 3.392C154.027 3.392 154.571 3.54133 155.03 3.84C155.499 4.13867 155.862 4.56 156.118 5.104C156.374 5.648 156.502 6.288 156.502 7.024V12H154.662V7.232C154.662 6.54933 154.507 6.016 154.198 5.632C153.899 5.248 153.478 5.056 152.934 5.056C152.55 5.056 152.203 5.14667 151.894 5.328C151.595 5.50933 151.36 5.75467 151.19 6.064C151.019 6.37333 150.934 6.73067 150.934 7.136V12H149.094ZM161.348 12.24C160.804 12.24 160.298 12.1493 159.828 11.968C159.37 11.7867 158.975 11.5307 158.644 11.2C158.324 10.8587 158.095 10.4587 157.956 10L159.62 9.568C159.759 9.93067 159.983 10.2133 160.292 10.416C160.602 10.6187 160.959 10.72 161.364 10.72C161.78 10.72 162.122 10.624 162.388 10.432C162.655 10.2293 162.788 9.97333 162.788 9.664C162.788 9.39733 162.682 9.17333 162.468 8.992C162.255 8.81067 161.908 8.67733 161.428 8.592L160.9 8.496C160.004 8.336 159.327 8.048 158.868 7.632C158.42 7.216 158.196 6.68267 158.196 6.032C158.196 5.50933 158.33 5.05067 158.596 4.656C158.863 4.26133 159.231 3.952 159.7 3.728C160.17 3.504 160.708 3.392 161.316 3.392C161.839 3.392 162.319 3.48267 162.756 3.664C163.194 3.84533 163.562 4.10133 163.86 4.432C164.159 4.76267 164.372 5.152 164.5 5.6L162.852 6C162.724 5.65867 162.522 5.392 162.244 5.2C161.978 4.99733 161.663 4.896 161.3 4.896C160.927 4.896 160.618 4.992 160.372 5.184C160.127 5.36533 160.004 5.6 160.004 5.888C160.004 6.13333 160.111 6.336 160.324 6.496C160.548 6.656 160.922 6.784 161.444 6.88L161.972 6.976C162.826 7.12533 163.482 7.41867 163.94 7.856C164.399 8.29333 164.628 8.83733 164.628 9.488C164.628 9.88267 164.548 10.2507 164.388 10.592C164.228 10.9227 163.999 11.216 163.7 11.472C163.412 11.7173 163.066 11.904 162.66 12.032C162.266 12.1707 161.828 12.24 161.348 12.24ZM166.252 8.672L166.156 0.639999H168.14L168.044 8.672H166.252ZM167.148 12.064C166.924 12.064 166.722 12.0107 166.54 11.904C166.37 11.7973 166.231 11.6533 166.124 11.472C166.018 11.2907 165.964 11.0933 165.964 10.88C165.964 10.6667 166.018 10.4693 166.124 10.288C166.231 10.1067 166.37 9.96267 166.54 9.856C166.722 9.74933 166.924 9.696 167.148 9.696C167.372 9.696 167.57 9.74933 167.74 9.856C167.922 9.96267 168.066 10.1067 168.172 10.288C168.279 10.4693 168.332 10.6667 168.332 10.88C168.332 11.0933 168.279 11.2907 168.172 11.472C168.066 11.6533 167.922 11.7973 167.74 11.904C167.57 12.0107 167.372 12.064 167.148 12.064ZM4.16894 34V29.52L0.184938 22.64H2.39294L5.17694 27.728L7.94494 22.64H10.1049L6.12094 29.52V34H4.16894ZM13.8409 34.24C13.2329 34.24 12.6676 34.1333 12.1449 33.92C11.6329 33.696 11.1849 33.3867 10.8009 32.992C10.4169 32.5867 10.1183 32.1173 9.90494 31.584C9.6916 31.04 9.58494 30.448 9.58494 29.808C9.58494 29.1787 9.6916 28.5973 9.90494 28.064C10.1183 27.52 10.4169 27.0507 10.8009 26.656C11.1956 26.2507 11.6543 25.9413 12.1769 25.728C12.7103 25.504 13.2863 25.392 13.9049 25.392C14.5129 25.392 15.0729 25.504 15.5849 25.728C16.1076 25.9413 16.5609 26.2507 16.9449 26.656C17.3289 27.0507 17.6276 27.5147 17.8409 28.048C18.0543 28.5813 18.1609 29.168 18.1609 29.808C18.1609 30.448 18.0543 31.04 17.8409 31.584C17.6276 32.1173 17.3236 32.5867 16.9289 32.992C16.5449 33.3867 16.0863 33.696 15.5529 33.92C15.0303 34.1333 14.4596 34.24 13.8409 34.24ZM13.8729 32.576C14.3316 32.576 14.7423 32.4587 15.1049 32.224C15.4676 31.9787 15.7503 31.648 15.9529 31.232C16.1663 30.816 16.2729 30.3413 16.2729 29.808C16.2729 29.2747 16.1663 28.8053 15.9529 28.4C15.7503 27.984 15.4676 27.6587 15.1049 27.424C14.7423 27.1787 14.3316 27.056 13.8729 27.056C13.4143 27.056 13.0036 27.1787 12.6409 27.424C12.2783 27.6587 11.9903 27.984 11.7769 28.4C11.5743 28.8053 11.4729 29.2747 11.4729 29.808C11.4729 30.3413 11.5743 30.816 11.7769 31.232C11.9903 31.648 12.2783 31.9787 12.6409 32.224C13.0036 32.4587 13.4143 32.576 13.8729 32.576ZM23.4611 34.24C22.7144 34.24 22.0637 34.08 21.5091 33.76C20.9651 33.44 20.5384 32.9867 20.2291 32.4C19.9304 31.8027 19.7811 31.104 19.7811 30.304V25.632H21.6211V30.336C21.6211 31.0293 21.7864 31.5787 22.1171 31.984C22.4477 32.3787 22.9011 32.576 23.4771 32.576C24.0531 32.576 24.5064 32.3787 24.8371 31.984C25.1677 31.5787 25.3331 31.0293 25.3331 30.336V25.632H27.1731V30.304C27.1731 31.0933 27.0184 31.7867 26.7091 32.384C26.4104 32.9707 25.9837 33.4293 25.4291 33.76C24.8744 34.08 24.2184 34.24 23.4611 34.24ZM29.1561 34V25.632H30.8361L30.9161 27.008C31.1294 26.5387 31.4227 26.176 31.7961 25.92C32.1801 25.6533 32.6281 25.52 33.1401 25.52C33.3001 25.52 33.4547 25.5307 33.6041 25.552C33.7534 25.5733 33.8867 25.6107 34.0041 25.664L33.7961 27.456C33.6787 27.4133 33.5561 27.3867 33.4281 27.376C33.3001 27.3547 33.1721 27.344 33.0441 27.344C32.4041 27.344 31.9027 27.5573 31.5401 27.984C31.1774 28.4107 30.9961 29.0027 30.9961 29.76V34H29.1561ZM42.3014 34.24C41.7468 34.24 41.2294 34.128 40.7494 33.904C40.2801 33.68 39.8694 33.3707 39.5174 32.976C39.1654 32.5813 38.8881 32.1173 38.6854 31.584C38.4934 31.0507 38.3974 30.4747 38.3974 29.856C38.3974 29.2267 38.4988 28.64 38.7014 28.096C38.9041 27.552 39.1868 27.0773 39.5494 26.672C39.9121 26.2667 40.3334 25.952 40.8134 25.728C41.3041 25.504 41.8321 25.392 42.3974 25.392C42.9521 25.392 43.4588 25.5093 43.9174 25.744C44.3761 25.9787 44.7548 26.3093 45.0534 26.736V22.096H46.8934V34H45.2134L45.1334 32.656C44.8348 33.1467 44.4401 33.536 43.9494 33.824C43.4588 34.1013 42.9094 34.24 42.3014 34.24ZM42.6854 32.576C43.1441 32.576 43.5548 32.4587 43.9174 32.224C44.2801 31.9787 44.5628 31.648 44.7654 31.232C44.9788 30.816 45.0854 30.3467 45.0854 29.824C45.0854 29.2907 44.9788 28.816 44.7654 28.4C44.5628 27.984 44.2801 27.6587 43.9174 27.424C43.5548 27.1787 43.1441 27.056 42.6854 27.056C42.2268 27.056 41.8161 27.1787 41.4534 27.424C41.0908 27.6587 40.8028 27.984 40.5894 28.4C40.3868 28.816 40.2854 29.2907 40.2854 29.824C40.2854 30.3467 40.3868 30.816 40.5894 31.232C40.8028 31.648 41.0908 31.9787 41.4534 32.224C41.8161 32.4587 42.2268 32.576 42.6854 32.576ZM51.4348 34.24C51.0081 34.24 50.6135 34.176 50.2508 34.048C49.8988 33.92 49.5895 33.7387 49.3228 33.504C49.0561 33.2693 48.8481 32.992 48.6988 32.672C48.5495 32.352 48.4748 32 48.4748 31.616C48.4748 31.0827 48.6135 30.6187 48.8908 30.224C49.1788 29.8187 49.5788 29.504 50.0908 29.28C50.6028 29.056 51.2001 28.944 51.8828 28.944C52.2561 28.944 52.6135 28.9813 52.9548 29.056C53.2961 29.12 53.6215 29.216 53.9308 29.344V28.816C53.9308 28.4427 53.8615 28.1173 53.7228 27.84C53.5841 27.552 53.3868 27.328 53.1308 27.168C52.8748 27.008 52.5655 26.928 52.2028 26.928C51.8188 26.928 51.4721 27.0293 51.1628 27.232C50.8535 27.4347 50.6241 27.7173 50.4748 28.08L48.7788 27.696C48.9068 27.2267 49.1361 26.8213 49.4668 26.48C49.8081 26.1387 50.2135 25.872 50.6828 25.68C51.1628 25.488 51.6801 25.392 52.2348 25.392C52.7575 25.392 53.2321 25.4773 53.6588 25.648C54.0961 25.8187 54.4695 26.0587 54.7788 26.368C55.0881 26.6773 55.3281 27.0453 55.4988 27.472C55.6695 27.8987 55.7548 28.3733 55.7548 28.896V34H54.0748L54.0108 32.896C53.7868 33.3013 53.4508 33.6267 53.0028 33.872C52.5548 34.1173 52.0321 34.24 51.4348 34.24ZM50.3308 31.536C50.3308 31.7707 50.3948 31.984 50.5228 32.176C50.6508 32.3573 50.8268 32.5013 51.0508 32.608C51.2855 32.7147 51.5575 32.768 51.8668 32.768C52.2615 32.768 52.6135 32.6827 52.9228 32.512C53.2321 32.3413 53.4775 32.112 53.6588 31.824C53.8401 31.5253 53.9308 31.1893 53.9308 30.816V30.624C53.6535 30.5067 53.3655 30.416 53.0668 30.352C52.7788 30.2773 52.4801 30.24 52.1708 30.24C51.6161 30.24 51.1681 30.3573 50.8268 30.592C50.4961 30.8267 50.3308 31.1413 50.3308 31.536ZM60.9246 34.24C60.0819 34.24 59.4206 34 58.9406 33.52C58.4606 33.0293 58.2206 32.3307 58.2206 31.424V27.12H56.7486V25.632H58.2206V22.8H60.0606V25.632H62.4926V27.12H60.0606V31.232C60.0606 31.68 60.1512 32.0267 60.3326 32.272C60.5246 32.5067 60.8019 32.624 61.1646 32.624C61.3566 32.624 61.5646 32.5973 61.7886 32.544C62.0126 32.48 62.2206 32.3947 62.4126 32.288L62.8286 33.68C62.5832 33.8507 62.2952 33.984 61.9646 34.08C61.6446 34.1867 61.2979 34.24 60.9246 34.24ZM66.7473 34.24C66.3206 34.24 65.926 34.176 65.5633 34.048C65.2113 33.92 64.902 33.7387 64.6353 33.504C64.3686 33.2693 64.1606 32.992 64.0113 32.672C63.862 32.352 63.7873 32 63.7873 31.616C63.7873 31.0827 63.926 30.6187 64.2033 30.224C64.4913 29.8187 64.8913 29.504 65.4033 29.28C65.9153 29.056 66.5126 28.944 67.1953 28.944C67.5686 28.944 67.926 28.9813 68.2673 29.056C68.6086 29.12 68.934 29.216 69.2433 29.344V28.816C69.2433 28.4427 69.174 28.1173 69.0353 27.84C68.8966 27.552 68.6993 27.328 68.4433 27.168C68.1873 27.008 67.878 26.928 67.5153 26.928C67.1313 26.928 66.7846 27.0293 66.4753 27.232C66.166 27.4347 65.9366 27.7173 65.7873 28.08L64.0913 27.696C64.2193 27.2267 64.4486 26.8213 64.7793 26.48C65.1206 26.1387 65.526 25.872 65.9953 25.68C66.4753 25.488 66.9926 25.392 67.5473 25.392C68.07 25.392 68.5446 25.4773 68.9713 25.648C69.4086 25.8187 69.782 26.0587 70.0913 26.368C70.4006 26.6773 70.6406 27.0453 70.8113 27.472C70.982 27.8987 71.0673 28.3733 71.0673 28.896V34H69.3873L69.3233 32.896C69.0993 33.3013 68.7633 33.6267 68.3153 33.872C67.8673 34.1173 67.3446 34.24 66.7473 34.24ZM65.6433 31.536C65.6433 31.7707 65.7073 31.984 65.8353 32.176C65.9633 32.3573 66.1393 32.5013 66.3633 32.608C66.598 32.7147 66.87 32.768 67.1793 32.768C67.574 32.768 67.926 32.6827 68.2353 32.512C68.5446 32.3413 68.79 32.112 68.9713 31.824C69.1526 31.5253 69.2433 31.1893 69.2433 30.816V30.624C68.966 30.5067 68.678 30.416 68.3793 30.352C68.0913 30.2773 67.7926 30.24 67.4833 30.24C66.9286 30.24 66.4806 30.3573 66.1393 30.592C65.8086 30.8267 65.6433 31.1413 65.6433 31.536ZM76.4529 34V22.096H78.2929V26.64C78.5489 26.256 78.8903 25.952 79.3169 25.728C79.7436 25.504 80.2236 25.392 80.7569 25.392C81.3863 25.392 81.9303 25.5413 82.3889 25.84C82.8583 26.1387 83.2209 26.56 83.4769 27.104C83.7329 27.648 83.8609 28.288 83.8609 29.024V34H82.0209V29.232C82.0209 28.5493 81.8663 28.016 81.5569 27.632C81.2583 27.248 80.8369 27.056 80.2929 27.056C79.9089 27.056 79.5623 27.1467 79.2529 27.328C78.9543 27.5093 78.7196 27.7547 78.5489 28.064C78.3783 28.3733 78.2929 28.7307 78.2929 29.136V34H76.4529ZM88.4036 34.24C87.9769 34.24 87.5822 34.176 87.2196 34.048C86.8676 33.92 86.5582 33.7387 86.2916 33.504C86.0249 33.2693 85.8169 32.992 85.6676 32.672C85.5182 32.352 85.4436 32 85.4436 31.616C85.4436 31.0827 85.5822 30.6187 85.8596 30.224C86.1476 29.8187 86.5476 29.504 87.0596 29.28C87.5716 29.056 88.1689 28.944 88.8516 28.944C89.2249 28.944 89.5822 28.9813 89.9236 29.056C90.2649 29.12 90.5902 29.216 90.8996 29.344V28.816C90.8996 28.4427 90.8302 28.1173 90.6916 27.84C90.5529 27.552 90.3556 27.328 90.0996 27.168C89.8436 27.008 89.5342 26.928 89.1716 26.928C88.7876 26.928 88.4409 27.0293 88.1316 27.232C87.8222 27.4347 87.5929 27.7173 87.4436 28.08L85.7476 27.696C85.8756 27.2267 86.1049 26.8213 86.4356 26.48C86.7769 26.1387 87.1822 25.872 87.6516 25.68C88.1316 25.488 88.6489 25.392 89.2036 25.392C89.7262 25.392 90.2009 25.4773 90.6276 25.648C91.0649 25.8187 91.4382 26.0587 91.7476 26.368C92.0569 26.6773 92.2969 27.0453 92.4676 27.472C92.6382 27.8987 92.7236 28.3733 92.7236 28.896V34H91.0436L90.9796 32.896C90.7556 33.3013 90.4196 33.6267 89.9716 33.872C89.5236 34.1173 89.0009 34.24 88.4036 34.24ZM87.2996 31.536C87.2996 31.7707 87.3636 31.984 87.4916 32.176C87.6196 32.3573 87.7956 32.5013 88.0196 32.608C88.2542 32.7147 88.5262 32.768 88.8356 32.768C89.2302 32.768 89.5822 32.6827 89.8916 32.512C90.2009 32.3413 90.4462 32.112 90.6276 31.824C90.8089 31.5253 90.8996 31.1893 90.8996 30.816V30.624C90.6222 30.5067 90.3342 30.416 90.0356 30.352C89.7476 30.2773 89.4489 30.24 89.1396 30.24C88.5849 30.24 88.1369 30.3573 87.7956 30.592C87.4649 30.8267 87.2996 31.1413 87.2996 31.536ZM97.5669 34.24C97.0229 34.24 96.5163 34.1493 96.0469 33.968C95.5883 33.7867 95.1936 33.5307 94.8629 33.2C94.5429 32.8587 94.3136 32.4587 94.1749 32L95.8389 31.568C95.9776 31.9307 96.2016 32.2133 96.5109 32.416C96.8203 32.6187 97.1776 32.72 97.5829 32.72C97.9989 32.72 98.3403 32.624 98.6069 32.432C98.8736 32.2293 99.0069 31.9733 99.0069 31.664C99.0069 31.3973 98.9003 31.1733 98.6869 30.992C98.4736 30.8107 98.1269 30.6773 97.6469 30.592L97.1189 30.496C96.2229 30.336 95.5456 30.048 95.0869 29.632C94.6389 29.216 94.4149 28.6827 94.4149 28.032C94.4149 27.5093 94.5483 27.0507 94.8149 26.656C95.0816 26.2613 95.4496 25.952 95.9189 25.728C96.3883 25.504 96.9269 25.392 97.5349 25.392C98.0576 25.392 98.5376 25.4827 98.9749 25.664C99.4123 25.8453 99.7803 26.1013 100.079 26.432C100.378 26.7627 100.591 27.152 100.719 27.6L99.0709 28C98.9429 27.6587 98.7403 27.392 98.4629 27.2C98.1963 26.9973 97.8816 26.896 97.5189 26.896C97.1456 26.896 96.8363 26.992 96.5909 27.184C96.3456 27.3653 96.2229 27.6 96.2229 27.888C96.2229 28.1333 96.3296 28.336 96.5429 28.496C96.7669 28.656 97.1403 28.784 97.6629 28.88L98.1909 28.976C99.0443 29.1253 99.7003 29.4187 100.159 29.856C100.618 30.2933 100.847 30.8373 100.847 31.488C100.847 31.8827 100.767 32.2507 100.607 32.592C100.447 32.9227 100.218 33.216 99.9189 33.472C99.6309 33.7173 99.2843 33.904 98.8789 34.032C98.4843 34.1707 98.0469 34.24 97.5669 34.24ZM105.765 34V22.096H107.605V26.848C107.904 26.3893 108.293 26.032 108.773 25.776C109.253 25.52 109.781 25.392 110.357 25.392C110.912 25.392 111.424 25.504 111.893 25.728C112.373 25.952 112.789 26.2613 113.141 26.656C113.493 27.0507 113.765 27.5147 113.957 28.048C114.16 28.5813 114.261 29.1573 114.261 29.776C114.261 30.4053 114.16 30.992 113.957 31.536C113.755 32.08 113.472 32.5547 113.109 32.96C112.747 33.3653 112.32 33.68 111.829 33.904C111.349 34.128 110.827 34.24 110.261 34.24C109.675 34.24 109.141 34.112 108.661 33.856C108.192 33.6 107.813 33.2373 107.525 32.768L107.445 34H105.765ZM109.973 32.576C110.432 32.576 110.843 32.4587 111.205 32.224C111.568 31.9787 111.851 31.648 112.053 31.232C112.267 30.816 112.373 30.3413 112.373 29.808C112.373 29.2747 112.267 28.8053 112.053 28.4C111.851 27.984 111.568 27.6587 111.205 27.424C110.843 27.1787 110.432 27.056 109.973 27.056C109.515 27.056 109.104 27.1787 108.741 27.424C108.379 27.6587 108.091 27.984 107.877 28.4C107.675 28.8053 107.573 29.2747 107.573 29.808C107.573 30.3413 107.675 30.816 107.877 31.232C108.091 31.648 108.379 31.9787 108.741 32.224C109.104 32.4587 109.515 32.576 109.973 32.576ZM119.841 34.24C119.222 34.24 118.652 34.1333 118.129 33.92C117.617 33.696 117.169 33.3867 116.785 32.992C116.401 32.5973 116.102 32.1333 115.889 31.6C115.686 31.056 115.585 30.4587 115.585 29.808C115.585 29.1787 115.686 28.5973 115.889 28.064C116.102 27.5307 116.39 27.0667 116.753 26.672C117.126 26.2667 117.564 25.952 118.065 25.728C118.566 25.504 119.11 25.392 119.697 25.392C120.284 25.392 120.817 25.4987 121.297 25.712C121.788 25.9147 122.209 26.208 122.561 26.592C122.924 26.976 123.201 27.4347 123.393 27.968C123.585 28.4907 123.681 29.072 123.681 29.712V30.256H117.489C117.542 30.7467 117.67 31.1733 117.873 31.536C118.086 31.888 118.358 32.16 118.689 32.352C119.02 32.544 119.404 32.64 119.841 32.64C120.716 32.64 121.398 32.2507 121.889 31.472L123.505 32.096C123.313 32.5333 123.03 32.9173 122.657 33.248C122.294 33.568 121.868 33.8133 121.377 33.984C120.897 34.1547 120.385 34.24 119.841 34.24ZM119.697 26.88C119.324 26.88 118.988 26.9653 118.689 27.136C118.401 27.3067 118.156 27.5467 117.953 27.856C117.75 28.1653 117.612 28.528 117.537 28.944H121.761C121.697 28.528 121.574 28.1653 121.393 27.856C121.212 27.5467 120.972 27.3067 120.673 27.136C120.385 26.9653 120.06 26.88 119.697 26.88ZM129.216 34.24C128.597 34.24 128.027 34.1333 127.504 33.92C126.992 33.696 126.544 33.3867 126.16 32.992C125.776 32.5973 125.477 32.1333 125.264 31.6C125.061 31.056 124.96 30.4587 124.96 29.808C124.96 29.1787 125.061 28.5973 125.264 28.064C125.477 27.5307 125.765 27.0667 126.128 26.672C126.501 26.2667 126.939 25.952 127.44 25.728C127.941 25.504 128.485 25.392 129.072 25.392C129.659 25.392 130.192 25.4987 130.672 25.712C131.163 25.9147 131.584 26.208 131.936 26.592C132.299 26.976 132.576 27.4347 132.768 27.968C132.96 28.4907 133.056 29.072 133.056 29.712V30.256H126.864C126.917 30.7467 127.045 31.1733 127.248 31.536C127.461 31.888 127.733 32.16 128.064 32.352C128.395 32.544 128.779 32.64 129.216 32.64C130.091 32.64 130.773 32.2507 131.264 31.472L132.88 32.096C132.688 32.5333 132.405 32.9173 132.032 33.248C131.669 33.568 131.243 33.8133 130.752 33.984C130.272 34.1547 129.76 34.24 129.216 34.24ZM129.072 26.88C128.699 26.88 128.363 26.9653 128.064 27.136C127.776 27.3067 127.531 27.5467 127.328 27.856C127.125 28.1653 126.987 28.528 126.912 28.944H131.136C131.072 28.528 130.949 28.1653 130.768 27.856C130.587 27.5467 130.347 27.3067 130.048 27.136C129.76 26.9653 129.435 26.88 129.072 26.88ZM134.625 34V25.632H136.305L136.369 26.784C136.614 26.3573 136.955 26.0213 137.393 25.776C137.841 25.52 138.353 25.392 138.929 25.392C139.558 25.392 140.102 25.5413 140.561 25.84C141.03 26.1387 141.393 26.56 141.649 27.104C141.905 27.648 142.033 28.288 142.033 29.024V34H140.193V29.232C140.193 28.5493 140.038 28.016 139.729 27.632C139.43 27.248 139.009 27.056 138.465 27.056C138.081 27.056 137.734 27.1467 137.425 27.328C137.126 27.5093 136.891 27.7547 136.721 28.064C136.55 28.3733 136.465 28.7307 136.465 29.136V34H134.625ZM147.422 34V25.632H149.102L149.182 27.008C149.395 26.5387 149.688 26.176 150.062 25.92C150.446 25.6533 150.894 25.52 151.406 25.52C151.566 25.52 151.72 25.5307 151.87 25.552C152.019 25.5733 152.152 25.6107 152.27 25.664L152.062 27.456C151.944 27.4133 151.822 27.3867 151.694 27.376C151.566 27.3547 151.438 27.344 151.31 27.344C150.67 27.344 150.168 27.5573 149.806 27.984C149.443 28.4107 149.262 29.0027 149.262 29.76V34H147.422ZM157.263 34.24C156.644 34.24 156.073 34.1333 155.551 33.92C155.039 33.696 154.591 33.3867 154.207 32.992C153.823 32.5973 153.524 32.1333 153.311 31.6C153.108 31.056 153.007 30.4587 153.007 29.808C153.007 29.1787 153.108 28.5973 153.311 28.064C153.524 27.5307 153.812 27.0667 154.175 26.672C154.548 26.2667 154.985 25.952 155.487 25.728C155.988 25.504 156.532 25.392 157.119 25.392C157.705 25.392 158.239 25.4987 158.719 25.712C159.209 25.9147 159.631 26.208 159.983 26.592C160.345 26.976 160.623 27.4347 160.815 27.968C161.007 28.4907 161.103 29.072 161.103 29.712V30.256H154.911C154.964 30.7467 155.092 31.1733 155.295 31.536C155.508 31.888 155.78 32.16 156.111 32.352C156.441 32.544 156.825 32.64 157.263 32.64C158.137 32.64 158.82 32.2507 159.311 31.472L160.927 32.096C160.735 32.5333 160.452 32.9173 160.079 33.248C159.716 33.568 159.289 33.8133 158.799 33.984C158.319 34.1547 157.807 34.24 157.263 34.24ZM157.119 26.88C156.745 26.88 156.409 26.9653 156.111 27.136C155.823 27.3067 155.577 27.5467 155.375 27.856C155.172 28.1653 155.033 28.528 154.959 28.944H159.183C159.119 28.528 158.996 28.1653 158.815 27.856C158.633 27.5467 158.393 27.3067 158.095 27.136C157.807 26.9653 157.481 26.88 157.119 26.88ZM166.526 34.24C165.928 34.24 165.379 34.1333 164.878 33.92C164.376 33.696 163.939 33.392 163.566 33.008C163.192 32.6133 162.899 32.1493 162.686 31.616C162.483 31.0827 162.382 30.5013 162.382 29.872C162.382 29.2427 162.488 28.656 162.702 28.112C162.915 27.568 163.208 27.0933 163.582 26.688C163.955 26.2827 164.392 25.968 164.894 25.744C165.406 25.5093 165.96 25.392 166.558 25.392C167.134 25.392 167.662 25.4987 168.142 25.712C168.622 25.9147 169.032 26.208 169.374 26.592C169.726 26.9653 169.976 27.408 170.126 27.92L168.382 28.336C168.2 27.9307 167.944 27.616 167.614 27.392C167.294 27.168 166.931 27.056 166.526 27.056C166.099 27.056 165.715 27.1787 165.374 27.424C165.032 27.6693 164.76 28.0053 164.558 28.432C164.366 28.848 164.27 29.3227 164.27 29.856C164.27 30.3787 164.366 30.848 164.558 31.264C164.75 31.6693 165.011 31.9893 165.342 32.224C165.683 32.4587 166.078 32.576 166.526 32.576C166.952 32.576 167.342 32.4693 167.694 32.256C168.046 32.032 168.307 31.7173 168.478 31.312L170.206 31.712C170.056 32.224 169.8 32.672 169.438 33.056C169.075 33.4293 168.643 33.7227 168.142 33.936C167.64 34.1387 167.102 34.24 166.526 34.24ZM175.544 34.24C174.936 34.24 174.371 34.1333 173.848 33.92C173.336 33.696 172.888 33.3867 172.504 32.992C172.12 32.5867 171.821 32.1173 171.608 31.584C171.395 31.04 171.288 30.448 171.288 29.808C171.288 29.1787 171.395 28.5973 171.608 28.064C171.821 27.52 172.12 27.0507 172.504 26.656C172.899 26.2507 173.357 25.9413 173.88 25.728C174.413 25.504 174.989 25.392 175.608 25.392C176.216 25.392 176.776 25.504 177.288 25.728C177.811 25.9413 178.264 26.2507 178.648 26.656C179.032 27.0507 179.331 27.5147 179.544 28.048C179.757 28.5813 179.864 29.168 179.864 29.808C179.864 30.448 179.757 31.04 179.544 31.584C179.331 32.1173 179.027 32.5867 178.632 32.992C178.248 33.3867 177.789 33.696 177.256 33.92C176.733 34.1333 176.163 34.24 175.544 34.24ZM175.576 32.576C176.035 32.576 176.445 32.4587 176.808 32.224C177.171 31.9787 177.453 31.648 177.656 31.232C177.869 30.816 177.976 30.3413 177.976 29.808C177.976 29.2747 177.869 28.8053 177.656 28.4C177.453 27.984 177.171 27.6587 176.808 27.424C176.445 27.1787 176.035 27.056 175.576 27.056C175.117 27.056 174.707 27.1787 174.344 27.424C173.981 27.6587 173.693 27.984 173.48 28.4C173.277 28.8053 173.176 29.2747 173.176 29.808C173.176 30.3413 173.277 30.816 173.48 31.232C173.693 31.648 173.981 31.9787 174.344 32.224C174.707 32.4587 175.117 32.576 175.576 32.576ZM181.484 34V25.632H183.164L183.244 27.008C183.458 26.5387 183.751 26.176 184.124 25.92C184.508 25.6533 184.956 25.52 185.468 25.52C185.628 25.52 185.783 25.5307 185.932 25.552C186.082 25.5733 186.215 25.6107 186.332 25.664L186.124 27.456C186.007 27.4133 185.884 27.3867 185.756 27.376C185.628 27.3547 185.5 27.344 185.372 27.344C184.732 27.344 184.231 27.5573 183.868 27.984C183.506 28.4107 183.324 29.0027 183.324 29.76V34H181.484ZM190.973 34.24C190.419 34.24 189.901 34.128 189.421 33.904C188.952 33.68 188.541 33.3707 188.189 32.976C187.837 32.5813 187.56 32.1173 187.357 31.584C187.165 31.0507 187.069 30.4747 187.069 29.856C187.069 29.2267 187.171 28.64 187.373 28.096C187.576 27.552 187.859 27.0773 188.221 26.672C188.584 26.2667 189.005 25.952 189.485 25.728C189.976 25.504 190.504 25.392 191.069 25.392C191.624 25.392 192.131 25.5093 192.589 25.744C193.048 25.9787 193.427 26.3093 193.725 26.736V22.096H195.565V34H193.885L193.805 32.656C193.507 33.1467 193.112 33.536 192.621 33.824C192.131 34.1013 191.581 34.24 190.973 34.24ZM191.357 32.576C191.816 32.576 192.227 32.4587 192.589 32.224C192.952 31.9787 193.235 31.648 193.437 31.232C193.651 30.816 193.757 30.3467 193.757 29.824C193.757 29.2907 193.651 28.816 193.437 28.4C193.235 27.984 192.952 27.6587 192.589 27.424C192.227 27.1787 191.816 27.056 191.357 27.056C190.899 27.056 190.488 27.1787 190.125 27.424C189.763 27.6587 189.475 27.984 189.261 28.4C189.059 28.816 188.957 29.2907 188.957 29.824C188.957 30.3467 189.059 30.816 189.261 31.232C189.475 31.648 189.763 31.9787 190.125 32.224C190.488 32.4587 190.899 32.576 191.357 32.576ZM201.435 34.24C200.816 34.24 200.245 34.1333 199.723 33.92C199.211 33.696 198.763 33.3867 198.379 32.992C197.995 32.5973 197.696 32.1333 197.483 31.6C197.28 31.056 197.179 30.4587 197.179 29.808C197.179 29.1787 197.28 28.5973 197.483 28.064C197.696 27.5307 197.984 27.0667 198.347 26.672C198.72 26.2667 199.157 25.952 199.659 25.728C200.16 25.504 200.704 25.392 201.291 25.392C201.877 25.392 202.411 25.4987 202.891 25.712C203.381 25.9147 203.803 26.208 204.155 26.592C204.517 26.976 204.795 27.4347 204.987 27.968C205.179 28.4907 205.275 29.072 205.275 29.712V30.256H199.083C199.136 30.7467 199.264 31.1733 199.467 31.536C199.68 31.888 199.952 32.16 200.283 32.352C200.613 32.544 200.997 32.64 201.435 32.64C202.309 32.64 202.992 32.2507 203.483 31.472L205.099 32.096C204.907 32.5333 204.624 32.9173 204.251 33.248C203.888 33.568 203.461 33.8133 202.971 33.984C202.491 34.1547 201.979 34.24 201.435 34.24ZM201.291 26.88C200.917 26.88 200.581 26.9653 200.283 27.136C199.995 27.3067 199.749 27.5467 199.547 27.856C199.344 28.1653 199.205 28.528 199.131 28.944H203.355C203.291 28.528 203.168 28.1653 202.987 27.856C202.805 27.5467 202.565 27.3067 202.267 27.136C201.979 26.9653 201.653 26.88 201.291 26.88ZM210.458 34.24C209.903 34.24 209.386 34.128 208.906 33.904C208.436 33.68 208.026 33.3707 207.674 32.976C207.322 32.5813 207.044 32.1173 206.842 31.584C206.65 31.0507 206.554 30.4747 206.554 29.856C206.554 29.2267 206.655 28.64 206.858 28.096C207.06 27.552 207.343 27.0773 207.706 26.672C208.068 26.2667 208.49 25.952 208.97 25.728C209.46 25.504 209.988 25.392 210.554 25.392C211.108 25.392 211.615 25.5093 212.074 25.744C212.532 25.9787 212.911 26.3093 213.21 26.736V22.096H215.05V34H213.37L213.29 32.656C212.991 33.1467 212.596 33.536 212.106 33.824C211.615 34.1013 211.066 34.24 210.458 34.24ZM210.842 32.576C211.3 32.576 211.711 32.4587 212.074 32.224C212.436 31.9787 212.719 31.648 212.922 31.232C213.135 30.816 213.242 30.3467 213.242 29.824C213.242 29.2907 213.135 28.816 212.922 28.4C212.719 27.984 212.436 27.6587 212.074 27.424C211.711 27.1787 211.3 27.056 210.842 27.056C210.383 27.056 209.972 27.1787 209.61 27.424C209.247 27.6587 208.959 27.984 208.746 28.4C208.543 28.816 208.442 29.2907 208.442 29.824C208.442 30.3467 208.543 30.816 208.746 31.232C208.959 31.648 209.247 31.9787 209.61 32.224C209.972 32.4587 210.383 32.576 210.842 32.576ZM64.6294 56.24C64.0854 56.24 63.5788 56.1493 63.1094 55.968C62.6508 55.7867 62.2561 55.5307 61.9254 55.2C61.6054 54.8587 61.3761 54.4587 61.2374 54L62.9014 53.568C63.0401 53.9307 63.2641 54.2133 63.5734 54.416C63.8828 54.6187 64.2401 54.72 64.6454 54.72C65.0614 54.72 65.4028 54.624 65.6694 54.432C65.9361 54.2293 66.0694 53.9733 66.0694 53.664C66.0694 53.3973 65.9628 53.1733 65.7494 52.992C65.5361 52.8107 65.1894 52.6773 64.7094 52.592L64.1814 52.496C63.2854 52.336 62.6081 52.048 62.1494 51.632C61.7014 51.216 61.4774 50.6827 61.4774 50.032C61.4774 49.5093 61.6108 49.0507 61.8774 48.656C62.1441 48.2613 62.5121 47.952 62.9814 47.728C63.4508 47.504 63.9894 47.392 64.5974 47.392C65.1201 47.392 65.6001 47.4827 66.0374 47.664C66.4748 47.8453 66.8428 48.1013 67.1414 48.432C67.4401 48.7627 67.6534 49.152 67.7814 49.6L66.1334 50C66.0054 49.6587 65.8028 49.392 65.5254 49.2C65.2588 48.9973 64.9441 48.896 64.5814 48.896C64.2081 48.896 63.8988 48.992 63.6534 49.184C63.4081 49.3653 63.2854 49.6 63.2854 49.888C63.2854 50.1333 63.3921 50.336 63.6054 50.496C63.8294 50.656 64.2028 50.784 64.7254 50.88L65.2534 50.976C66.1068 51.1253 66.7628 51.4187 67.2214 51.856C67.6801 52.2933 67.9094 52.8373 67.9094 53.488C67.9094 53.8827 67.8294 54.2507 67.6694 54.592C67.5094 54.9227 67.2801 55.216 66.9814 55.472C66.6934 55.7173 66.3468 55.904 65.9414 56.032C65.5468 56.1707 65.1094 56.24 64.6294 56.24ZM73.1017 56.24C72.355 56.24 71.7044 56.08 71.1497 55.76C70.6057 55.44 70.179 54.9867 69.8697 54.4C69.571 53.8027 69.4217 53.104 69.4217 52.304V47.632H71.2617V52.336C71.2617 53.0293 71.427 53.5787 71.7577 53.984C72.0884 54.3787 72.5417 54.576 73.1177 54.576C73.6937 54.576 74.147 54.3787 74.4777 53.984C74.8084 53.5787 74.9737 53.0293 74.9737 52.336V47.632H76.8137V52.304C76.8137 53.0933 76.659 53.7867 76.3497 54.384C76.051 54.9707 75.6244 55.4293 75.0697 55.76C74.515 56.08 73.859 56.24 73.1017 56.24ZM82.5727 56.24C81.9754 56.24 81.426 56.1333 80.9247 55.92C80.4234 55.696 79.986 55.392 79.6127 55.008C79.2394 54.6133 78.946 54.1493 78.7327 53.616C78.53 53.0827 78.4287 52.5013 78.4287 51.872C78.4287 51.2427 78.5354 50.656 78.7487 50.112C78.962 49.568 79.2554 49.0933 79.6287 48.688C80.002 48.2827 80.4394 47.968 80.9407 47.744C81.4527 47.5093 82.0074 47.392 82.6047 47.392C83.1807 47.392 83.7087 47.4987 84.1887 47.712C84.6687 47.9147 85.0794 48.208 85.4207 48.592C85.7727 48.9653 86.0234 49.408 86.1727 49.92L84.4287 50.336C84.2474 49.9307 83.9914 49.616 83.6607 49.392C83.3407 49.168 82.978 49.056 82.5727 49.056C82.146 49.056 81.762 49.1787 81.4207 49.424C81.0794 49.6693 80.8074 50.0053 80.6047 50.432C80.4127 50.848 80.3167 51.3227 80.3167 51.856C80.3167 52.3787 80.4127 52.848 80.6047 53.264C80.7967 53.6693 81.058 53.9893 81.3887 54.224C81.73 54.4587 82.1247 54.576 82.5727 54.576C82.9994 54.576 83.3887 54.4693 83.7407 54.256C84.0927 54.032 84.354 53.7173 84.5247 53.312L86.2527 53.712C86.1034 54.224 85.8474 54.672 85.4847 55.056C85.122 55.4293 84.69 55.7227 84.1887 55.936C83.6874 56.1387 83.1487 56.24 82.5727 56.24ZM91.4789 56.24C90.8816 56.24 90.3323 56.1333 89.8309 55.92C89.3296 55.696 88.8923 55.392 88.5189 55.008C88.1456 54.6133 87.8523 54.1493 87.6389 53.616C87.4363 53.0827 87.3349 52.5013 87.3349 51.872C87.3349 51.2427 87.4416 50.656 87.6549 50.112C87.8683 49.568 88.1616 49.0933 88.5349 48.688C88.9083 48.2827 89.3456 47.968 89.8469 47.744C90.3589 47.5093 90.9136 47.392 91.5109 47.392C92.0869 47.392 92.6149 47.4987 93.0949 47.712C93.5749 47.9147 93.9856 48.208 94.3269 48.592C94.6789 48.9653 94.9296 49.408 95.0789 49.92L93.3349 50.336C93.1536 49.9307 92.8976 49.616 92.5669 49.392C92.2469 49.168 91.8843 49.056 91.4789 49.056C91.0523 49.056 90.6683 49.1787 90.3269 49.424C89.9856 49.6693 89.7136 50.0053 89.5109 50.432C89.3189 50.848 89.2229 51.3227 89.2229 51.856C89.2229 52.3787 89.3189 52.848 89.5109 53.264C89.7029 53.6693 89.9643 53.9893 90.2949 54.224C90.6363 54.4587 91.0309 54.576 91.4789 54.576C91.9056 54.576 92.2949 54.4693 92.6469 54.256C92.9989 54.032 93.2603 53.7173 93.4309 53.312L95.1589 53.712C95.0096 54.224 94.7536 54.672 94.3909 55.056C94.0283 55.4293 93.5963 55.7227 93.0949 55.936C92.5936 56.1387 92.0549 56.24 91.4789 56.24ZM100.497 56.24C99.8785 56.24 99.3079 56.1333 98.7852 55.92C98.2732 55.696 97.8252 55.3867 97.4412 54.992C97.0572 54.5973 96.7585 54.1333 96.5452 53.6C96.3425 53.056 96.2412 52.4587 96.2412 51.808C96.2412 51.1787 96.3425 50.5973 96.5452 50.064C96.7585 49.5307 97.0465 49.0667 97.4092 48.672C97.7825 48.2667 98.2199 47.952 98.7212 47.728C99.2225 47.504 99.7665 47.392 100.353 47.392C100.94 47.392 101.473 47.4987 101.953 47.712C102.444 47.9147 102.865 48.208 103.217 48.592C103.58 48.976 103.857 49.4347 104.049 49.968C104.241 50.4907 104.337 51.072 104.337 51.712V52.256H98.1452C98.1985 52.7467 98.3265 53.1733 98.5292 53.536C98.7425 53.888 99.0145 54.16 99.3452 54.352C99.6759 54.544 100.06 54.64 100.497 54.64C101.372 54.64 102.055 54.2507 102.545 53.472L104.161 54.096C103.969 54.5333 103.687 54.9173 103.313 55.248C102.951 55.568 102.524 55.8133 102.033 55.984C101.553 56.1547 101.041 56.24 100.497 56.24ZM100.353 48.88C99.9799 48.88 99.6439 48.9653 99.3452 49.136C99.0572 49.3067 98.8119 49.5467 98.6092 49.856C98.4065 50.1653 98.2679 50.528 98.1932 50.944H102.417C102.353 50.528 102.231 50.1653 102.049 49.856C101.868 49.5467 101.628 49.3067 101.329 49.136C101.041 48.9653 100.716 48.88 100.353 48.88ZM108.833 56.24C108.289 56.24 107.782 56.1493 107.313 55.968C106.854 55.7867 106.459 55.5307 106.129 55.2C105.809 54.8587 105.579 54.4587 105.441 54L107.105 53.568C107.243 53.9307 107.467 54.2133 107.777 54.416C108.086 54.6187 108.443 54.72 108.849 54.72C109.265 54.72 109.606 54.624 109.873 54.432C110.139 54.2293 110.273 53.9733 110.273 53.664C110.273 53.3973 110.166 53.1733 109.953 52.992C109.739 52.8107 109.393 52.6773 108.913 52.592L108.385 52.496C107.489 52.336 106.811 52.048 106.353 51.632C105.905 51.216 105.681 50.6827 105.681 50.032C105.681 49.5093 105.814 49.0507 106.081 48.656C106.347 48.2613 106.715 47.952 107.185 47.728C107.654 47.504 108.193 47.392 108.801 47.392C109.323 47.392 109.803 47.4827 110.241 47.664C110.678 47.8453 111.046 48.1013 111.345 48.432C111.643 48.7627 111.857 49.152 111.985 49.6L110.337 50C110.209 49.6587 110.006 49.392 109.729 49.2C109.462 48.9973 109.147 48.896 108.785 48.896C108.411 48.896 108.102 48.992 107.857 49.184C107.611 49.3653 107.489 49.6 107.489 49.888C107.489 50.1333 107.595 50.336 107.809 50.496C108.033 50.656 108.406 50.784 108.929 50.88L109.457 50.976C110.31 51.1253 110.966 51.4187 111.425 51.856C111.883 52.2933 112.113 52.8373 112.113 53.488C112.113 53.8827 112.033 54.2507 111.873 54.592C111.713 54.9227 111.483 55.216 111.185 55.472C110.897 55.7173 110.55 55.904 110.145 56.032C109.75 56.1707 109.313 56.24 108.833 56.24ZM116.489 56.24C115.945 56.24 115.438 56.1493 114.969 55.968C114.51 55.7867 114.115 55.5307 113.785 55.2C113.465 54.8587 113.235 54.4587 113.097 54L114.761 53.568C114.899 53.9307 115.123 54.2133 115.433 54.416C115.742 54.6187 116.099 54.72 116.505 54.72C116.921 54.72 117.262 54.624 117.529 54.432C117.795 54.2293 117.929 53.9733 117.929 53.664C117.929 53.3973 117.822 53.1733 117.609 52.992C117.395 52.8107 117.049 52.6773 116.569 52.592L116.041 52.496C115.145 52.336 114.467 52.048 114.009 51.632C113.561 51.216 113.337 50.6827 113.337 50.032C113.337 49.5093 113.47 49.0507 113.737 48.656C114.003 48.2613 114.371 47.952 114.841 47.728C115.31 47.504 115.849 47.392 116.457 47.392C116.979 47.392 117.459 47.4827 117.897 47.664C118.334 47.8453 118.702 48.1013 119.001 48.432C119.299 48.7627 119.513 49.152 119.641 49.6L117.993 50C117.865 49.6587 117.662 49.392 117.385 49.2C117.118 48.9973 116.803 48.896 116.441 48.896C116.067 48.896 115.758 48.992 115.513 49.184C115.267 49.3653 115.145 49.6 115.145 49.888C115.145 50.1333 115.251 50.336 115.465 50.496C115.689 50.656 116.062 50.784 116.585 50.88L117.113 50.976C117.966 51.1253 118.622 51.4187 119.081 51.856C119.539 52.2933 119.769 52.8373 119.769 53.488C119.769 53.8827 119.689 54.2507 119.529 54.592C119.369 54.9227 119.139 55.216 118.841 55.472C118.553 55.7173 118.206 55.904 117.801 56.032C117.406 56.1707 116.969 56.24 116.489 56.24ZM121.971 56V49.12H120.499V47.632H121.971V47.04C121.971 46.4213 122.099 45.8827 122.355 45.424C122.611 44.9547 122.963 44.592 123.411 44.336C123.859 44.0693 124.371 43.936 124.947 43.936C125.277 43.936 125.576 43.9787 125.843 44.064C126.12 44.1387 126.365 44.2347 126.579 44.352L126.163 45.76C126.024 45.6853 125.864 45.6267 125.683 45.584C125.512 45.5307 125.341 45.504 125.171 45.504C124.712 45.504 124.371 45.648 124.147 45.936C123.923 46.2133 123.811 46.6133 123.811 47.136V47.632H126.211V49.12H123.811V56H121.971ZM131.258 56.24C130.511 56.24 129.861 56.08 129.306 55.76C128.762 55.44 128.335 54.9867 128.026 54.4C127.727 53.8027 127.578 53.104 127.578 52.304V47.632H129.418V52.336C129.418 53.0293 129.583 53.5787 129.914 53.984C130.245 54.3787 130.698 54.576 131.274 54.576C131.85 54.576 132.303 54.3787 132.634 53.984C132.965 53.5787 133.13 53.0293 133.13 52.336V47.632H134.97V52.304C134.97 53.0933 134.815 53.7867 134.506 54.384C134.207 54.9707 133.781 55.4293 133.226 55.76C132.671 56.08 132.015 56.24 131.258 56.24ZM136.953 56V44.096H138.793V56H136.953ZM140.781 56V44.096H142.621V56H140.781ZM145.729 59.328C145.463 59.328 145.212 59.3013 144.977 59.248C144.753 59.1947 144.535 59.1093 144.321 58.992L144.721 57.536C144.839 57.5893 144.972 57.632 145.121 57.664C145.271 57.7067 145.415 57.728 145.553 57.728C145.873 57.728 146.151 57.6373 146.385 57.456C146.631 57.2747 146.833 56.9813 146.993 56.576L147.249 55.92L143.841 47.632H145.857L148.113 53.888L150.161 47.632H152.113L148.561 57.008C148.252 57.808 147.863 58.3947 147.393 58.768C146.935 59.1413 146.38 59.328 145.729 59.328ZM153.196 56.064C152.972 56.064 152.769 56.0107 152.588 55.904C152.407 55.7973 152.257 55.6533 152.14 55.472C152.033 55.28 151.98 55.072 151.98 54.848C151.98 54.624 152.033 54.4213 152.14 54.24C152.257 54.048 152.407 53.8987 152.588 53.792C152.769 53.6853 152.972 53.632 153.196 53.632C153.42 53.632 153.623 53.6853 153.804 53.792C153.985 53.8987 154.129 54.048 154.236 54.24C154.353 54.4213 154.412 54.624 154.412 54.848C154.412 55.072 154.353 55.28 154.236 55.472C154.129 55.6533 153.985 55.7973 153.804 55.904C153.623 56.0107 153.42 56.064 153.196 56.064Z" fill="#666666"/>
</svg>
