<svg width="14" height="22" viewBox="0 0 7 11" fill="none" xmlns="http://www.w3.org/2000/svg">
<path d="M3.18748 6.86348C3.30477 6.86348 3.39998 6.76827 3.39998 6.65098C3.39998 6.53369 3.30477 6.43848 3.18748 6.43848C3.07019 6.43848 2.97498 6.53369 2.97498 6.65098C2.97498 6.76827 3.07019 6.86348 3.18748 6.86348Z" fill="#666666"/>
<path d="M4.34953 5.25381C4.84259 4.95424 5.25074 4.53256 5.52998 4.03426C5.80474 3.54394 5.95 2.98911 5.95 2.42972V1.23848C6.19736 1.15074 6.375 0.914497 6.375 0.6375V0.2125C6.375 0.0951269 6.27987 0 6.1625 0H0.2125C0.0951269 0 0 0.0951269 0 0.2125V0.6375C0 0.914497 0.177637 1.15074 0.425 1.23848V2.42972C0.425 2.98911 0.570264 3.54394 0.84502 4.03426C1.12426 4.53256 1.53249 4.95432 2.02556 5.25381C2.08856 5.29208 2.12625 5.36172 2.12625 5.44C2.12625 5.51836 2.08856 5.58792 2.02556 5.62627C1.53249 5.92576 1.12426 6.34744 0.84502 6.84574C0.570264 7.33606 0.425 7.89089 0.425 8.45028V9.64152C0.177637 9.72926 0 9.9655 0 10.2425V10.6675C0 10.7849 0.0951269 10.88 0.2125 10.88H6.1625C6.27987 10.88 6.375 10.7849 6.375 10.6675V10.2425C6.375 9.9655 6.19736 9.72926 5.95 9.64152V8.45028C5.95 7.89089 5.80474 7.33606 5.52998 6.84574C5.25074 6.34744 4.84251 5.92568 4.34944 5.62619C4.28644 5.58792 4.24875 5.51828 4.24875 5.44C4.24875 5.36164 4.28644 5.29208 4.34953 5.25381ZM0.425 0.425H5.95V0.6375C5.95 0.754707 5.85471 0.85 5.7375 0.85H0.6375C0.520293 0.85 0.425 0.754707 0.425 0.6375V0.425ZM5.95 10.455H0.425V10.2425C0.425 10.1253 0.520293 10.03 0.6375 10.03H5.7375C5.85471 10.03 5.95 10.1253 5.95 10.2425V10.455ZM4.12889 5.98943C5.00305 6.52051 5.525 7.44049 5.525 8.45028V9.605H0.85V8.45028C0.85 7.44049 1.37195 6.52051 2.24611 5.98943C2.43719 5.87347 2.55125 5.66802 2.55125 5.44C2.55125 5.21198 2.43719 5.00653 2.24611 4.89057C1.37195 4.35949 0.85 3.43951 0.85 2.42972V1.275H5.525V2.42972C5.525 3.43951 5.00305 4.35949 4.12889 4.89057C3.93781 5.00653 3.82376 5.21198 3.82376 5.44C3.82376 5.66802 3.93781 5.87347 4.12889 5.98943Z" fill="#666666"/>
<path d="M3.35686 7.36234C3.31677 7.30889 3.25385 7.27734 3.18703 7.27734C3.18703 7.27734 3.18694 7.27734 3.18686 7.27734C3.12012 7.27734 3.0572 7.30872 3.01711 7.36201C2.93701 7.46859 2.83723 7.55916 2.72061 7.63146C2.47723 7.77805 2.25983 7.86969 2.06792 7.95062C1.64242 8.13008 1.27502 8.28506 1.27502 8.87408V8.96755C1.27502 9.08492 1.37015 9.18005 1.48752 9.18005H4.88752C5.0049 9.18005 5.10002 9.08492 5.10002 8.96755V8.87408C5.10002 8.28539 4.73172 8.12975 4.30531 7.94946C4.11182 7.86761 3.89251 7.77498 3.64606 7.62664C3.53309 7.5565 3.4358 7.46751 3.35686 7.36234ZM4.66664 8.75505H1.70833C1.7407 8.55865 1.87459 8.49341 2.2331 8.34225C2.42825 8.25991 2.67105 8.15756 2.94107 7.99486C2.94174 7.99437 2.94249 7.99395 2.94315 7.99354C3.0313 7.939 3.11273 7.87666 3.18669 7.80718C3.25883 7.875 3.33785 7.9356 3.42327 7.98855C3.42401 7.98897 3.42476 7.98947 3.42551 7.98988C3.69844 8.15424 3.94314 8.25775 4.13979 8.34092C4.49979 8.49308 4.63418 8.55865 4.66664 8.75505Z" fill="#666666"/>
<path d="M5.10002 2.43064V2.03967C5.10002 1.96239 5.05811 1.89125 4.99054 1.85382C4.92297 1.8163 4.84046 1.81854 4.77488 1.85946C4.29842 2.15729 3.74957 2.31468 3.18752 2.31468C2.62556 2.31468 2.07663 2.15729 1.60017 1.85946C1.53459 1.81854 1.45208 1.81638 1.38451 1.85382C1.31694 1.89125 1.27502 1.96239 1.27502 2.03967V2.43064C1.27502 2.7982 1.41697 3.19381 1.68542 3.57465C1.94556 3.9437 2.3064 4.27333 2.72899 4.52808C2.81482 4.58145 2.89891 4.65716 2.97502 4.74863V5.80092C2.97502 5.91829 3.07015 6.01342 3.18752 6.01342C3.30481 6.01342 3.40002 5.91829 3.40002 5.80092V4.74905C3.47755 4.65649 3.56446 4.57905 3.65444 4.52327C4.51914 4.00173 5.10002 3.16094 5.10002 2.43064ZM3.43397 4.15986C3.43331 4.16035 3.43256 4.16069 3.4319 4.16119C3.34715 4.21356 3.26505 4.27839 3.18827 4.35293C3.11381 4.28005 3.03471 4.21755 2.95178 4.16617C2.95104 4.16567 2.95029 4.16525 2.94954 4.16475C2.20214 3.7146 1.70002 3.01775 1.70002 2.43064V2.39934C2.16246 2.6228 2.67014 2.73968 3.18752 2.73968C3.70491 2.73968 4.21259 2.6228 4.67502 2.39934V2.43064C4.67502 3.00854 4.16469 3.71958 3.43397 4.15986Z" fill="#666666"/>
</svg>
