<svg width="20" height="20" viewBox="0 0 10 10" fill="none" xmlns="http://www.w3.org/2000/svg">
<g clip-path="url(#clip0)">
<path d="M8.25607 2.43498C8.33224 2.359 8.33224 2.23498 8.25607 2.15881C8.17947 2.08262 8.05716 2.08234 7.9799 2.15881C7.90392 2.23498 7.90392 2.359 7.9799 2.43498C8.0573 2.51197 8.18038 2.51067 8.25607 2.43498Z" fill="#666666"/>
<path d="M7.84173 3.67816C7.91935 3.60013 7.91687 3.47632 7.84173 3.40199C7.76599 3.32625 7.64293 3.32504 7.56556 3.40199C7.49105 3.47609 7.4874 3.59916 7.56556 3.67816C7.64296 3.75515 7.76605 3.75384 7.84173 3.67816Z" fill="#666666"/>
<path d="M7.42748 4.92037C7.50365 4.844 7.50365 4.72037 7.42748 4.6442C7.35144 4.56775 7.22722 4.56789 7.15131 4.6442C7.07513 4.72037 7.07513 4.844 7.15131 4.92037C7.22769 4.99675 7.35115 4.99669 7.42748 4.92037Z" fill="#666666"/>
<path d="M7.01322 2.84904C7.0892 2.77306 7.0892 2.64904 7.01322 2.57286C6.93576 2.49581 6.81285 2.49728 6.73685 2.57286C6.66088 2.64904 6.66088 2.77306 6.73685 2.84904C6.81324 2.92542 6.93691 2.92536 7.01322 2.84904Z" fill="#666666"/>
<path d="M6.32257 3.81609C6.2464 3.89226 6.2464 4.01589 6.32257 4.09226C6.39896 4.16865 6.52241 4.16859 6.59874 4.09226C6.67491 4.01589 6.67491 3.89226 6.59874 3.81609C6.52255 3.73948 6.39837 3.7399 6.32257 3.81609Z" fill="#666666"/>
<path d="M0.724676 7.338C0.305951 7.75696 0.305971 8.43847 0.724715 8.85719C0.872923 9.0054 1.05959 9.10593 1.262 9.14865C1.30471 9.35106 1.40523 9.53772 1.55345 9.68595C1.97224 10.1047 2.65374 10.1046 3.07268 9.68595C3.44428 9.31433 3.48617 8.73592 3.19839 8.31766L4.10838 7.41101C4.58369 7.56666 5.08535 7.51035 5.50984 7.26794L5.99917 6.9885C6.09284 6.93502 6.1254 6.8157 6.07192 6.72202C6.01845 6.62835 5.89913 6.59577 5.80545 6.64927L5.31612 6.92871C4.7684 7.24144 4.10928 7.12698 3.69341 6.71118C3.26584 6.28353 3.17667 5.62703 3.46799 5.10234C3.73409 4.62367 3.83662 4.06639 3.75665 3.53307C3.62831 2.67783 3.91638 1.80253 4.52722 1.19169C5.11217 0.606708 5.92016 0.320175 6.74404 0.405432C7.56779 0.490728 8.30606 0.946192 8.76953 1.65504C9.58376 2.89999 9.22556 4.69629 7.8156 5.50132L7.33163 5.7777C7.23796 5.83117 7.2054 5.9505 7.25888 6.04417C7.31236 6.13785 7.43168 6.1704 7.52535 6.11693L8.00929 5.84057C9.6189 4.92158 10.0309 2.86998 9.09648 1.44127C8.56834 0.633525 7.72557 0.114348 6.78427 0.0169038C5.84281 -0.0805994 4.91952 0.24695 4.251 0.915488C3.54709 1.61942 3.22308 2.6097 3.37035 3.59104C3.43758 4.03952 3.35101 4.50883 3.12651 4.91263C2.89627 5.32739 2.83775 5.83364 2.99854 6.31094L2.09367 7.21249C1.67941 6.92602 1.10049 6.96217 0.724676 7.338ZM2.24369 7.61444L3.1762 6.68534C3.24478 6.7941 3.32507 6.89529 3.41719 6.9874C3.51258 7.0828 3.61766 7.16553 3.73087 7.23569L2.79672 8.16645C2.72025 8.24264 2.72011 8.36655 2.79646 8.44292C3.063 8.70945 3.063 9.14318 2.7965 9.40967C2.52985 9.67614 2.09613 9.67618 1.82967 9.40971C1.71053 9.29056 1.6398 9.13241 1.63053 8.96436C1.62504 8.86497 1.54568 8.78563 1.44628 8.78012C1.27823 8.77082 1.12008 8.7001 1.00094 8.58095C0.734461 8.31448 0.734481 7.88077 1.00094 7.61418C1.26801 7.34708 1.70059 7.34704 1.96771 7.61418C2.0439 7.69036 2.16738 7.69047 2.24369 7.61444Z" fill="#666666"/>
<path d="M6.66431 6.57617C6.77217 6.57617 6.85962 6.48873 6.85962 6.38086C6.85962 6.27299 6.77217 6.18555 6.66431 6.18555C6.55644 6.18555 6.46899 6.27299 6.46899 6.38086C6.46899 6.48873 6.55644 6.57617 6.66431 6.57617Z" fill="#666666"/>
</g>
<defs>
<clipPath id="clip0">
<rect width="10" height="10" fill="white"/>
</clipPath>
</defs>
</svg>
