<svg width="32" height="32" viewBox="0 0 32 32" fill="none" xmlns="http://www.w3.org/2000/svg">
<g clip-path="url(#clip0)">
<path d="M31.5886 2.17679C31.5081 2.08122 31.3929 2.02154 31.2684 2.01091L24.3042 1.4161L24.1779 0.412475C24.1454 0.154288 23.9092 -0.0287124 23.6517 0.00372513L17.1912 0.815975C17.1658 0.80935 17.1397 0.80435 17.1126 0.802038L8.23285 0.0435376C7.97717 0.0210376 7.74504 0.217663 7.72329 0.47285L7.59092 2.02285L0.712855 2.8876C0.458355 2.9196 0.272168 3.15916 0.304105 3.41385L3.81498 31.3393C3.83092 31.4667 3.80361 31.5891 3.85567 31.7123C3.92867 31.8848 4.10242 32 4.28986 32H27.4092C27.6695 32 27.8804 31.7892 27.8804 31.5288V30.9152L28.7929 30.9931C29.0486 31.0153 29.2807 30.8191 29.3025 30.5638L31.6977 2.5206C31.7084 2.39604 31.6692 2.27241 31.5886 2.17679ZM3.81867 23.8139L1.29798 3.76379L3.81867 3.44691V23.8139ZM8.62217 1.0226L12.7459 1.37479L8.54704 1.90272L8.62217 1.0226ZM23.3017 0.997538L23.5425 2.91235H8.07054L23.3017 0.997538ZM28.4037 30.014L27.8804 29.9693V16.1997C27.8804 15.9394 27.6695 15.7285 27.4092 15.7285C27.1489 15.7285 26.938 15.9393 26.938 16.1997V31.0576H4.76104V3.85472H26.938V14.0008C26.938 14.2612 27.1489 14.472 27.4092 14.472C27.6695 14.472 27.8804 14.2612 27.8804 14.0008V3.38354C27.8804 3.12329 27.6695 2.91235 27.4092 2.91235H24.4923L24.4244 2.37216L30.7187 2.90979L28.4037 30.014Z" fill="#636262"/>
<path d="M24.8962 5.42554H22.3832C22.2257 5.42554 22.0785 5.50422 21.9912 5.63535L20.9247 7.2351C19.7768 6.41279 18.3714 5.9281 16.8547 5.9281C16.5945 5.9281 16.3835 6.13897 16.3835 6.39929V12.933C16.3835 13.1933 16.5944 13.4042 16.8547 13.4042H23.3885C23.6488 13.4042 23.8597 13.1933 23.8597 12.933C23.8597 10.927 23.0118 9.11547 21.6559 7.83722L22.6355 6.36791H24.8963C25.1565 6.36791 25.3675 6.15704 25.3675 5.89672C25.3675 5.63641 25.1565 5.42554 24.8962 5.42554ZM22.8992 12.4618H17.3259V6.8886C18.4686 6.97685 19.5228 7.38435 20.4013 8.02029L19.9809 8.65097C19.8495 8.84785 19.888 9.12054 20.0694 9.27285C20.2818 9.45122 20.6112 9.40416 20.7649 9.17372L21.1247 8.63397C22.1265 9.6291 22.7839 10.9706 22.8992 12.4618Z" fill="#636262"/>
<path d="M24.8962 21.0057H20.634L19.883 19.8041C21.0996 18.5435 21.8492 16.8292 21.8492 14.9432C21.8492 14.6829 21.6384 14.472 21.378 14.472H15.3155V8.40942C15.3155 8.14917 15.1045 7.93823 14.8443 7.93823C10.9818 7.93823 7.83936 11.0807 7.83936 14.9432C7.83936 18.8057 10.9818 21.9481 14.8443 21.9481C16.477 21.9481 17.9809 21.3866 19.1733 20.4467L19.9733 21.7267C20.0594 21.8644 20.2104 21.9481 20.3729 21.9481H24.8962C25.1565 21.9481 25.3674 21.7372 25.3674 21.4769C25.3674 21.2166 25.1565 21.0057 24.8962 21.0057ZM18.2595 17.2064C18.1217 16.9856 17.8309 16.9186 17.6102 17.0565C17.3895 17.1944 17.3224 17.4852 17.4604 17.7059L18.6706 19.6422C17.6263 20.4942 16.294 21.0058 14.8444 21.0058C11.5015 21.0058 8.78179 18.2861 8.78179 14.9432C8.78179 11.7589 11.2496 9.14005 14.3732 8.8988V14.9432C14.3732 15.2035 14.5841 15.4144 14.8444 15.4144H20.8888C20.7835 16.777 20.2258 18.0147 19.3662 18.9772L18.2595 17.2064Z" fill="#636262"/>
<path d="M10.8236 23.5188H6.80285C6.54267 23.5188 6.33167 23.7297 6.33167 23.99C6.33167 24.2503 6.5426 24.4612 6.80285 24.4612H10.8236C11.0839 24.4612 11.2948 24.2503 11.2948 23.99C11.2948 23.7297 11.0839 23.5188 10.8236 23.5188Z" fill="#636262"/>
<path d="M16.8547 23.5188H12.834C12.5737 23.5188 12.3628 23.7297 12.3628 23.99C12.3628 24.2503 12.5737 24.4612 12.834 24.4612H16.8547C17.115 24.4612 17.3259 24.2503 17.3259 23.99C17.3259 23.7297 17.115 23.5188 16.8547 23.5188Z" fill="#636262"/>
<path d="M13.3366 26.0317H6.80285C6.54267 26.0317 6.33167 26.2426 6.33167 26.5029C6.33167 26.7632 6.5426 26.9741 6.80285 26.9741H13.3366C13.5969 26.9741 13.8078 26.7632 13.8078 26.5029C13.8078 26.2426 13.5968 26.0317 13.3366 26.0317Z" fill="#636262"/>
<path d="M16.8547 26.0317H15.3469C15.0867 26.0317 14.8757 26.2426 14.8757 26.5029C14.8757 26.7632 15.0867 26.9741 15.3469 26.9741H16.8547C17.115 26.9741 17.3259 26.7632 17.3259 26.5029C17.3259 26.2426 17.115 26.0317 16.8547 26.0317Z" fill="#636262"/>
<path d="M8.81323 28.5447H6.80285C6.54267 28.5447 6.33167 28.7556 6.33167 29.0159C6.33167 29.2762 6.5426 29.4871 6.80285 29.4871H8.81323C9.07348 29.4871 9.28442 29.2762 9.28442 29.0159C9.28442 28.7556 9.07348 28.5447 8.81323 28.5447Z" fill="#636262"/>
<path d="M16.8547 28.5447H10.8236C10.5634 28.5447 10.3524 28.7556 10.3524 29.0159C10.3524 29.2762 10.5634 29.4871 10.8236 29.4871H16.8547C17.115 29.4871 17.3259 29.2762 17.3259 29.0159C17.3259 28.7556 17.115 28.5447 16.8547 28.5447Z" fill="#636262"/>
</g>
<defs>
<clipPath id="clip0">
<rect width="32" height="32" fill="white"/>
</clipPath>
</defs>
</svg>
