<svg width="130" height="38" viewBox="0 0 130 38" fill="none" xmlns="http://www.w3.org/2000/svg">
<rect x="0.5" y="0.5" width="129" height="37" rx="7.5" fill="#FECE47" stroke="#FECE47"/>
<path d="M50.4328 24.24C49.7928 24.24 49.1954 24.128 48.6408 23.904C48.0968 23.6693 47.6328 23.344 47.2488 22.928C46.8648 22.512 46.5928 22.016 46.4328 21.44L48.2728 20.992C48.4434 21.4827 48.7154 21.8613 49.0888 22.128C49.4621 22.3947 49.9154 22.528 50.4488 22.528C50.8328 22.528 51.1741 22.4533 51.4728 22.304C51.7714 22.1547 52.0061 21.952 52.1768 21.696C52.3581 21.44 52.4488 21.1467 52.4488 20.816C52.4488 20.4107 52.2994 20.0747 52.0008 19.808C51.7128 19.5307 51.2541 19.3227 50.6248 19.184L50.0328 19.056C48.9021 18.8107 48.0648 18.4053 47.5208 17.84C46.9874 17.2747 46.7208 16.5867 46.7208 15.776C46.7208 15.2853 46.8168 14.8373 47.0088 14.432C47.2008 14.016 47.4674 13.6587 47.8088 13.36C48.1501 13.0507 48.5501 12.816 49.0088 12.656C49.4674 12.4853 49.9634 12.4 50.4968 12.4C51.1048 12.4 51.6648 12.512 52.1768 12.736C52.6888 12.96 53.1261 13.28 53.4888 13.696C53.8514 14.1013 54.1074 14.5867 54.2568 15.152L52.4328 15.6C52.2621 15.12 52.0061 14.752 51.6648 14.496C51.3234 14.24 50.9181 14.112 50.4488 14.112C50.1074 14.112 49.8034 14.1813 49.5368 14.32C49.2808 14.448 49.0728 14.6293 48.9128 14.864C48.7634 15.088 48.6888 15.344 48.6888 15.632C48.6888 16.048 48.8434 16.3787 49.1528 16.624C49.4621 16.8693 49.9368 17.0667 50.5768 17.216L51.1688 17.344C53.3448 17.8347 54.4328 18.9387 54.4328 20.656C54.4328 21.1787 54.3314 21.664 54.1288 22.112C53.9368 22.5493 53.6594 22.928 53.2968 23.248C52.9341 23.5573 52.5074 23.8027 52.0168 23.984C51.5368 24.1547 51.0088 24.24 50.4328 24.24ZM60.1144 24.24C59.4957 24.24 58.925 24.1333 58.4024 23.92C57.8904 23.696 57.4424 23.3867 57.0584 22.992C56.6744 22.5973 56.3757 22.1333 56.1624 21.6C55.9597 21.056 55.8584 20.4587 55.8584 19.808C55.8584 19.1787 55.9597 18.5973 56.1624 18.064C56.3757 17.5307 56.6637 17.0667 57.0264 16.672C57.3997 16.2667 57.837 15.952 58.3384 15.728C58.8397 15.504 59.3837 15.392 59.9704 15.392C60.557 15.392 61.0904 15.4987 61.5704 15.712C62.061 15.9147 62.4824 16.208 62.8344 16.592C63.197 16.976 63.4744 17.4347 63.6664 17.968C63.8584 18.4907 63.9544 19.072 63.9544 19.712V20.256H57.7624C57.8157 20.7467 57.9437 21.1733 58.1464 21.536C58.3597 21.888 58.6317 22.16 58.9624 22.352C59.293 22.544 59.677 22.64 60.1144 22.64C60.989 22.64 61.6717 22.2507 62.1624 21.472L63.7784 22.096C63.5864 22.5333 63.3037 22.9173 62.9304 23.248C62.5677 23.568 62.141 23.8133 61.6504 23.984C61.1704 24.1547 60.6584 24.24 60.1144 24.24ZM59.9704 16.88C59.597 16.88 59.261 16.9653 58.9624 17.136C58.6744 17.3067 58.429 17.5467 58.2264 17.856C58.0237 18.1653 57.885 18.528 57.8104 18.944H62.0344C61.9704 18.528 61.8477 18.1653 61.6664 17.856C61.485 17.5467 61.245 17.3067 60.9464 17.136C60.6584 16.9653 60.333 16.88 59.9704 16.88ZM65.5233 24V15.632H67.2033L67.2673 16.784C67.5126 16.3573 67.8539 16.0213 68.2913 15.776C68.7393 15.52 69.2513 15.392 69.8273 15.392C70.4566 15.392 71.0006 15.5413 71.4593 15.84C71.9286 16.1387 72.2913 16.56 72.5473 17.104C72.8033 17.648 72.9313 18.288 72.9313 19.024V24H71.0913V19.232C71.0913 18.5493 70.9366 18.016 70.6273 17.632C70.3286 17.248 69.9073 17.056 69.3633 17.056C68.9793 17.056 68.6326 17.1467 68.3233 17.328C68.0246 17.5093 67.7899 17.7547 67.6193 18.064C67.4486 18.3733 67.3633 18.7307 67.3633 19.136V24H65.5233ZM78.4499 24.24C77.8952 24.24 77.3779 24.128 76.8979 23.904C76.4285 23.68 76.0179 23.3707 75.6659 22.976C75.3139 22.5813 75.0365 22.1173 74.8339 21.584C74.6419 21.0507 74.5459 20.4747 74.5459 19.856C74.5459 19.2267 74.6472 18.64 74.8499 18.096C75.0525 17.552 75.3352 17.0773 75.6979 16.672C76.0605 16.2667 76.4819 15.952 76.9619 15.728C77.4525 15.504 77.9805 15.392 78.5459 15.392C79.1005 15.392 79.6072 15.5093 80.0659 15.744C80.5245 15.9787 80.9032 16.3093 81.2019 16.736V12.096H83.0419V24H81.3619L81.2819 22.656C80.9832 23.1467 80.5885 23.536 80.0979 23.824C79.6072 24.1013 79.0579 24.24 78.4499 24.24ZM78.8339 22.576C79.2925 22.576 79.7032 22.4587 80.0659 22.224C80.4285 21.9787 80.7112 21.648 80.9139 21.232C81.1272 20.816 81.2339 20.3467 81.2339 19.824C81.2339 19.2907 81.1272 18.816 80.9139 18.4C80.7112 17.984 80.4285 17.6587 80.0659 17.424C79.7032 17.1787 79.2925 17.056 78.8339 17.056C78.3752 17.056 77.9645 17.1787 77.6019 17.424C77.2392 17.6587 76.9512 17.984 76.7379 18.4C76.5352 18.816 76.4339 19.2907 76.4339 19.824C76.4339 20.3467 76.5352 20.816 76.7379 21.232C76.9512 21.648 77.2392 21.9787 77.6019 22.224C77.9645 22.4587 78.3752 22.576 78.8339 22.576Z" fill="white"/>
</svg>
