<svg width="132" height="40" viewBox="0 0 132 40" fill="none" xmlns="http://www.w3.org/2000/svg">
<rect x="1" y="1" width="130" height="38" rx="8" stroke="#FECE47" stroke-opacity="0.8" stroke-width="2"/>
<path d="M22.8279 25L18.4759 13.64H20.6039L23.9159 22.792L27.2119 13.64H29.2599L24.9079 25H22.8279ZM32.4303 14.296C32.4303 14.4987 32.3769 14.6853 32.2703 14.856C32.1743 15.0267 32.0409 15.1653 31.8703 15.272C31.6996 15.368 31.5129 15.416 31.3103 15.416C31.1076 15.416 30.9209 15.368 30.7503 15.272C30.5796 15.1653 30.4409 15.0267 30.3343 14.856C30.2383 14.6853 30.1903 14.4987 30.1903 14.296C30.1903 14.0933 30.2383 13.9067 30.3343 13.736C30.4409 13.5653 30.5796 13.432 30.7503 13.336C30.9209 13.2293 31.1076 13.176 31.3103 13.176C31.5129 13.176 31.6996 13.2293 31.8703 13.336C32.0409 13.432 32.1743 13.5653 32.2703 13.736C32.3769 13.9067 32.4303 14.0933 32.4303 14.296ZM30.3983 25V16.632H32.2383V25H30.3983ZM38.1144 25.24C37.4957 25.24 36.925 25.1333 36.4024 24.92C35.8904 24.696 35.4424 24.3867 35.0584 23.992C34.6744 23.5973 34.3757 23.1333 34.1624 22.6C33.9597 22.056 33.8584 21.4587 33.8584 20.808C33.8584 20.1787 33.9597 19.5973 34.1624 19.064C34.3757 18.5307 34.6637 18.0667 35.0264 17.672C35.3997 17.2667 35.837 16.952 36.3384 16.728C36.8397 16.504 37.3837 16.392 37.9704 16.392C38.557 16.392 39.0904 16.4987 39.5704 16.712C40.061 16.9147 40.4824 17.208 40.8344 17.592C41.197 17.976 41.4744 18.4347 41.6664 18.968C41.8584 19.4907 41.9544 20.072 41.9544 20.712V21.256H35.7624C35.8157 21.7467 35.9437 22.1733 36.1464 22.536C36.3597 22.888 36.6317 23.16 36.9624 23.352C37.293 23.544 37.677 23.64 38.1144 23.64C38.989 23.64 39.6717 23.2507 40.1624 22.472L41.7784 23.096C41.5864 23.5333 41.3037 23.9173 40.9304 24.248C40.5677 24.568 40.141 24.8133 39.6504 24.984C39.1704 25.1547 38.6584 25.24 38.1144 25.24ZM37.9704 17.88C37.597 17.88 37.261 17.9653 36.9624 18.136C36.6744 18.3067 36.429 18.5467 36.2264 18.856C36.0237 19.1653 35.885 19.528 35.8104 19.944H40.0344C39.9704 19.528 39.8477 19.1653 39.6664 18.856C39.485 18.5467 39.245 18.3067 38.9464 18.136C38.6584 17.9653 38.333 17.88 37.9704 17.88ZM45.5236 25L42.7396 16.632H44.6596L46.4356 22.744L48.3076 16.632H49.9556L51.8116 22.744L53.6196 16.632H55.4756L52.6756 25H50.9476L49.1076 18.92L47.2516 25H45.5236ZM60.2294 25V13.64H62.1814V18.248H67.7334V13.64H69.6854V25H67.7334V19.992H62.1814V25H60.2294ZM73.8365 14.296C73.8365 14.4987 73.7832 14.6853 73.6765 14.856C73.5805 15.0267 73.4472 15.1653 73.2765 15.272C73.1058 15.368 72.9192 15.416 72.7165 15.416C72.5138 15.416 72.3272 15.368 72.1565 15.272C71.9858 15.1653 71.8472 15.0267 71.7405 14.856C71.6445 14.6853 71.5965 14.4987 71.5965 14.296C71.5965 14.0933 71.6445 13.9067 71.7405 13.736C71.8472 13.5653 71.9858 13.432 72.1565 13.336C72.3272 13.2293 72.5138 13.176 72.7165 13.176C72.9192 13.176 73.1058 13.2293 73.2765 13.336C73.4472 13.432 73.5805 13.5653 73.6765 13.736C73.7832 13.9067 73.8365 14.0933 73.8365 14.296ZM71.8045 25V16.632H73.6445V25H71.8045ZM78.4966 25.24C77.9526 25.24 77.446 25.1493 76.9766 24.968C76.518 24.7867 76.1233 24.5307 75.7926 24.2C75.4726 23.8587 75.2433 23.4587 75.1046 23L76.7686 22.568C76.9073 22.9307 77.1313 23.2133 77.4406 23.416C77.75 23.6187 78.1073 23.72 78.5126 23.72C78.9286 23.72 79.27 23.624 79.5366 23.432C79.8033 23.2293 79.9366 22.9733 79.9366 22.664C79.9366 22.3973 79.83 22.1733 79.6166 21.992C79.4033 21.8107 79.0566 21.6773 78.5766 21.592L78.0486 21.496C77.1526 21.336 76.4753 21.048 76.0166 20.632C75.5686 20.216 75.3446 19.6827 75.3446 19.032C75.3446 18.5093 75.478 18.0507 75.7446 17.656C76.0113 17.2613 76.3793 16.952 76.8486 16.728C77.318 16.504 77.8566 16.392 78.4646 16.392C78.9873 16.392 79.4673 16.4827 79.9046 16.664C80.342 16.8453 80.71 17.1013 81.0086 17.432C81.3073 17.7627 81.5206 18.152 81.6486 18.6L80.0006 19C79.8726 18.6587 79.67 18.392 79.3926 18.2C79.126 17.9973 78.8113 17.896 78.4486 17.896C78.0753 17.896 77.766 17.992 77.5206 18.184C77.2753 18.3653 77.1526 18.6 77.1526 18.888C77.1526 19.1333 77.2593 19.336 77.4726 19.496C77.6966 19.656 78.07 19.784 78.5926 19.88L79.1206 19.976C79.974 20.1253 80.63 20.4187 81.0886 20.856C81.5473 21.2933 81.7766 21.8373 81.7766 22.488C81.7766 22.8827 81.6966 23.2507 81.5366 23.592C81.3766 23.9227 81.1473 24.216 80.8486 24.472C80.5606 24.7173 80.214 24.904 79.8086 25.032C79.414 25.1707 78.9766 25.24 78.4966 25.24ZM86.6511 25.24C85.8085 25.24 85.1471 25 84.6671 24.52C84.1871 24.0293 83.9471 23.3307 83.9471 22.424V18.12H82.4751V16.632H83.9471V13.8H85.7871V16.632H88.2191V18.12H85.7871V22.232C85.7871 22.68 85.8778 23.0267 86.0591 23.272C86.2511 23.5067 86.5285 23.624 86.8911 23.624C87.0831 23.624 87.2911 23.5973 87.5151 23.544C87.7391 23.48 87.9471 23.3947 88.1391 23.288L88.5551 24.68C88.3098 24.8507 88.0218 24.984 87.6911 25.08C87.3711 25.1867 87.0245 25.24 86.6511 25.24ZM93.7394 25.24C93.1314 25.24 92.566 25.1333 92.0434 24.92C91.5314 24.696 91.0834 24.3867 90.6994 23.992C90.3154 23.5867 90.0167 23.1173 89.8034 22.584C89.59 22.04 89.4834 21.448 89.4834 20.808C89.4834 20.1787 89.59 19.5973 89.8034 19.064C90.0167 18.52 90.3154 18.0507 90.6994 17.656C91.094 17.2507 91.5527 16.9413 92.0754 16.728C92.6087 16.504 93.1847 16.392 93.8034 16.392C94.4114 16.392 94.9714 16.504 95.4834 16.728C96.006 16.9413 96.4594 17.2507 96.8434 17.656C97.2274 18.0507 97.526 18.5147 97.7394 19.048C97.9527 19.5813 98.0594 20.168 98.0594 20.808C98.0594 21.448 97.9527 22.04 97.7394 22.584C97.526 23.1173 97.222 23.5867 96.8274 23.992C96.4434 24.3867 95.9847 24.696 95.4514 24.92C94.9287 25.1333 94.358 25.24 93.7394 25.24ZM93.7714 23.576C94.23 23.576 94.6407 23.4587 95.0034 23.224C95.366 22.9787 95.6487 22.648 95.8514 22.232C96.0647 21.816 96.1714 21.3413 96.1714 20.808C96.1714 20.2747 96.0647 19.8053 95.8514 19.4C95.6487 18.984 95.366 18.6587 95.0034 18.424C94.6407 18.1787 94.23 18.056 93.7714 18.056C93.3127 18.056 92.902 18.1787 92.5394 18.424C92.1767 18.6587 91.8887 18.984 91.6754 19.4C91.4727 19.8053 91.3714 20.2747 91.3714 20.808C91.3714 21.3413 91.4727 21.816 91.6754 22.232C91.8887 22.648 92.1767 22.9787 92.5394 23.224C92.902 23.4587 93.3127 23.576 93.7714 23.576ZM99.6795 25V16.632H101.36L101.44 18.008C101.653 17.5387 101.946 17.176 102.32 16.92C102.704 16.6533 103.152 16.52 103.664 16.52C103.824 16.52 103.978 16.5307 104.128 16.552C104.277 16.5733 104.41 16.6107 104.528 16.664L104.32 18.456C104.202 18.4133 104.08 18.3867 103.952 18.376C103.824 18.3547 103.696 18.344 103.568 18.344C102.928 18.344 102.426 18.5573 102.064 18.984C101.701 19.4107 101.52 20.0027 101.52 20.76V25H99.6795ZM107.221 28.328C106.955 28.328 106.704 28.3013 106.469 28.248C106.245 28.1947 106.027 28.1093 105.813 27.992L106.213 26.536C106.331 26.5893 106.464 26.632 106.613 26.664C106.763 26.7067 106.907 26.728 107.045 26.728C107.365 26.728 107.643 26.6373 107.877 26.456C108.123 26.2747 108.325 25.9813 108.485 25.576L108.741 24.92L105.333 16.632H107.349L109.605 22.888L111.653 16.632H113.605L110.053 26.008C109.744 26.808 109.355 27.3947 108.885 27.768C108.427 28.1413 107.872 28.328 107.221 28.328Z" fill="#FECE47"/>
</svg>
