<svg width="165" height="38" viewBox="0 0 165 38" fill="none" xmlns="http://www.w3.org/2000/svg">
<rect x="0.5" y="0.5" width="164" height="37" rx="7.5" fill="#FECE47" stroke="#FECE47"/>
<path d="M39.3279 24L34.9759 12.64H37.1039L40.4159 21.792L43.7119 12.64H45.7599L41.4079 24H39.3279ZM48.9303 13.296C48.9303 13.4987 48.8769 13.6853 48.7703 13.856C48.6743 14.0267 48.5409 14.1653 48.3703 14.272C48.1996 14.368 48.0129 14.416 47.8103 14.416C47.6076 14.416 47.4209 14.368 47.2503 14.272C47.0796 14.1653 46.9409 14.0267 46.8343 13.856C46.7383 13.6853 46.6903 13.4987 46.6903 13.296C46.6903 13.0933 46.7383 12.9067 46.8343 12.736C46.9409 12.5653 47.0796 12.432 47.2503 12.336C47.4209 12.2293 47.6076 12.176 47.8103 12.176C48.0129 12.176 48.1996 12.2293 48.3703 12.336C48.5409 12.432 48.6743 12.5653 48.7703 12.736C48.8769 12.9067 48.9303 13.0933 48.9303 13.296ZM46.8983 24V15.632H48.7383V24H46.8983ZM54.6144 24.24C53.9957 24.24 53.425 24.1333 52.9024 23.92C52.3904 23.696 51.9424 23.3867 51.5584 22.992C51.1744 22.5973 50.8757 22.1333 50.6624 21.6C50.4597 21.056 50.3584 20.4587 50.3584 19.808C50.3584 19.1787 50.4597 18.5973 50.6624 18.064C50.8757 17.5307 51.1637 17.0667 51.5264 16.672C51.8997 16.2667 52.337 15.952 52.8384 15.728C53.3397 15.504 53.8837 15.392 54.4704 15.392C55.057 15.392 55.5904 15.4987 56.0704 15.712C56.561 15.9147 56.9824 16.208 57.3344 16.592C57.697 16.976 57.9744 17.4347 58.1664 17.968C58.3584 18.4907 58.4544 19.072 58.4544 19.712V20.256H52.2624C52.3157 20.7467 52.4437 21.1733 52.6464 21.536C52.8597 21.888 53.1317 22.16 53.4624 22.352C53.793 22.544 54.177 22.64 54.6144 22.64C55.489 22.64 56.1717 22.2507 56.6624 21.472L58.2784 22.096C58.0864 22.5333 57.8037 22.9173 57.4304 23.248C57.0677 23.568 56.641 23.8133 56.1504 23.984C55.6704 24.1547 55.1584 24.24 54.6144 24.24ZM54.4704 16.88C54.097 16.88 53.761 16.9653 53.4624 17.136C53.1744 17.3067 52.929 17.5467 52.7264 17.856C52.5237 18.1653 52.385 18.528 52.3104 18.944H56.5344C56.4704 18.528 56.3477 18.1653 56.1664 17.856C55.985 17.5467 55.745 17.3067 55.4464 17.136C55.1584 16.9653 54.833 16.88 54.4704 16.88ZM62.0236 24L59.2396 15.632H61.1596L62.9356 21.744L64.8076 15.632H66.4556L68.3116 21.744L70.1196 15.632H71.9756L69.1756 24H67.4476L65.6076 17.92L63.7516 24H62.0236ZM76.7294 24V12.64H78.6814V17.248H84.2334V12.64H86.1854V24H84.2334V18.992H78.6814V24H76.7294ZM90.3365 13.296C90.3365 13.4987 90.2832 13.6853 90.1765 13.856C90.0805 14.0267 89.9472 14.1653 89.7765 14.272C89.6058 14.368 89.4192 14.416 89.2165 14.416C89.0138 14.416 88.8272 14.368 88.6565 14.272C88.4858 14.1653 88.3472 14.0267 88.2405 13.856C88.1445 13.6853 88.0965 13.4987 88.0965 13.296C88.0965 13.0933 88.1445 12.9067 88.2405 12.736C88.3472 12.5653 88.4858 12.432 88.6565 12.336C88.8272 12.2293 89.0138 12.176 89.2165 12.176C89.4192 12.176 89.6058 12.2293 89.7765 12.336C89.9472 12.432 90.0805 12.5653 90.1765 12.736C90.2832 12.9067 90.3365 13.0933 90.3365 13.296ZM88.3045 24V15.632H90.1445V24H88.3045ZM94.9966 24.24C94.4526 24.24 93.946 24.1493 93.4766 23.968C93.018 23.7867 92.6233 23.5307 92.2926 23.2C91.9726 22.8587 91.7433 22.4587 91.6046 22L93.2686 21.568C93.4073 21.9307 93.6313 22.2133 93.9406 22.416C94.25 22.6187 94.6073 22.72 95.0126 22.72C95.4286 22.72 95.77 22.624 96.0366 22.432C96.3033 22.2293 96.4366 21.9733 96.4366 21.664C96.4366 21.3973 96.33 21.1733 96.1166 20.992C95.9033 20.8107 95.5566 20.6773 95.0766 20.592L94.5486 20.496C93.6526 20.336 92.9753 20.048 92.5166 19.632C92.0686 19.216 91.8446 18.6827 91.8446 18.032C91.8446 17.5093 91.978 17.0507 92.2446 16.656C92.5113 16.2613 92.8793 15.952 93.3486 15.728C93.818 15.504 94.3566 15.392 94.9646 15.392C95.4873 15.392 95.9673 15.4827 96.4046 15.664C96.842 15.8453 97.21 16.1013 97.5086 16.432C97.8073 16.7627 98.0206 17.152 98.1486 17.6L96.5006 18C96.3726 17.6587 96.17 17.392 95.8926 17.2C95.626 16.9973 95.3113 16.896 94.9486 16.896C94.5753 16.896 94.266 16.992 94.0206 17.184C93.7753 17.3653 93.6526 17.6 93.6526 17.888C93.6526 18.1333 93.7593 18.336 93.9726 18.496C94.1966 18.656 94.57 18.784 95.0926 18.88L95.6206 18.976C96.474 19.1253 97.13 19.4187 97.5886 19.856C98.0473 20.2933 98.2766 20.8373 98.2766 21.488C98.2766 21.8827 98.1966 22.2507 98.0366 22.592C97.8766 22.9227 97.6473 23.216 97.3486 23.472C97.0606 23.7173 96.714 23.904 96.3086 24.032C95.914 24.1707 95.4766 24.24 94.9966 24.24ZM103.151 24.24C102.308 24.24 101.647 24 101.167 23.52C100.687 23.0293 100.447 22.3307 100.447 21.424V17.12H98.9751V15.632H100.447V12.8H102.287V15.632H104.719V17.12H102.287V21.232C102.287 21.68 102.378 22.0267 102.559 22.272C102.751 22.5067 103.028 22.624 103.391 22.624C103.583 22.624 103.791 22.5973 104.015 22.544C104.239 22.48 104.447 22.3947 104.639 22.288L105.055 23.68C104.81 23.8507 104.522 23.984 104.191 24.08C103.871 24.1867 103.524 24.24 103.151 24.24ZM110.239 24.24C109.631 24.24 109.066 24.1333 108.543 23.92C108.031 23.696 107.583 23.3867 107.199 22.992C106.815 22.5867 106.517 22.1173 106.303 21.584C106.09 21.04 105.983 20.448 105.983 19.808C105.983 19.1787 106.09 18.5973 106.303 18.064C106.517 17.52 106.815 17.0507 107.199 16.656C107.594 16.2507 108.053 15.9413 108.575 15.728C109.109 15.504 109.685 15.392 110.303 15.392C110.911 15.392 111.471 15.504 111.983 15.728C112.506 15.9413 112.959 16.2507 113.343 16.656C113.727 17.0507 114.026 17.5147 114.239 18.048C114.453 18.5813 114.559 19.168 114.559 19.808C114.559 20.448 114.453 21.04 114.239 21.584C114.026 22.1173 113.722 22.5867 113.327 22.992C112.943 23.3867 112.485 23.696 111.951 23.92C111.429 24.1333 110.858 24.24 110.239 24.24ZM110.271 22.576C110.73 22.576 111.141 22.4587 111.503 22.224C111.866 21.9787 112.149 21.648 112.351 21.232C112.565 20.816 112.671 20.3413 112.671 19.808C112.671 19.2747 112.565 18.8053 112.351 18.4C112.149 17.984 111.866 17.6587 111.503 17.424C111.141 17.1787 110.73 17.056 110.271 17.056C109.813 17.056 109.402 17.1787 109.039 17.424C108.677 17.6587 108.389 17.984 108.175 18.4C107.973 18.8053 107.871 19.2747 107.871 19.808C107.871 20.3413 107.973 20.816 108.175 21.232C108.389 21.648 108.677 21.9787 109.039 22.224C109.402 22.4587 109.813 22.576 110.271 22.576ZM116.18 24V15.632H117.86L117.94 17.008C118.153 16.5387 118.446 16.176 118.82 15.92C119.204 15.6533 119.652 15.52 120.164 15.52C120.324 15.52 120.478 15.5307 120.628 15.552C120.777 15.5733 120.91 15.6107 121.028 15.664L120.82 17.456C120.702 17.4133 120.58 17.3867 120.452 17.376C120.324 17.3547 120.196 17.344 120.068 17.344C119.428 17.344 118.926 17.5573 118.564 17.984C118.201 18.4107 118.02 19.0027 118.02 19.76V24H116.18ZM123.721 27.328C123.455 27.328 123.204 27.3013 122.969 27.248C122.745 27.1947 122.527 27.1093 122.313 26.992L122.713 25.536C122.831 25.5893 122.964 25.632 123.113 25.664C123.263 25.7067 123.407 25.728 123.545 25.728C123.865 25.728 124.143 25.6373 124.377 25.456C124.623 25.2747 124.825 24.9813 124.985 24.576L125.241 23.92L121.833 15.632H123.849L126.105 21.888L128.153 15.632H130.105L126.553 25.008C126.244 25.808 125.855 26.3947 125.385 26.768C124.927 27.1413 124.372 27.328 123.721 27.328Z" fill="white"/>
</svg>
